<?xml version="1.0" encoding="utf-8" standalone="no"?>
<!DOCTYPE svg PUBLIC "-//W3C//DTD SVG 1.1//EN"
  "http://www.w3.org/Graphics/SVG/1.1/DTD/svg11.dtd">
<svg xmlns:xlink="http://www.w3.org/1999/xlink" width="720pt" height="432pt" viewBox="0 0 720 432" xmlns="http://www.w3.org/2000/svg" version="1.1">
 <metadata>
  <rdf:RDF xmlns:dc="http://purl.org/dc/elements/1.1/" xmlns:cc="http://creativecommons.org/ns#" xmlns:rdf="http://www.w3.org/1999/02/22-rdf-syntax-ns#">
   <cc:Work>
    <dc:type rdf:resource="http://purl.org/dc/dcmitype/StillImage"/>
    <dc:date>2024-03-27T19:33:54.209573</dc:date>
    <dc:format>image/svg+xml</dc:format>
    <dc:creator>
     <cc:Agent>
      <dc:title>Matplotlib v3.8.3, https://matplotlib.org/</dc:title>
     </cc:Agent>
    </dc:creator>
   </cc:Work>
  </rdf:RDF>
 </metadata>
 <defs>
  <style type="text/css">*{stroke-linejoin: round; stroke-linecap: butt}</style>
 </defs>
 <g id="figure_1">
  <g id="patch_1">
   <path d="M 0 432 
L 720 432 
L 720 0 
L 0 0 
z
" style="fill: #ffffff"/>
  </g>
  <g id="axes_1">
   <g id="patch_2">
    <path d="M 90 384.48 
L 648 384.48 
L 648 51.84 
L 90 51.84 
z
" style="fill: #ffffff"/>
   </g>
   <g id="matplotlib.axis_1">
    <g id="xtick_1">
     <g id="line2d_1">
      <path d="M 115.363636 384.48 
L 115.363636 51.84 
" clip-path="url(#pae9d421cf5)" style="fill: none; stroke: #b0b0b0; stroke-width: 0.8; stroke-linecap: square"/>
     </g>
     <g id="line2d_2">
      <defs>
       <path id="m1de09e8755" d="M 0 0 
L 0 3.5 
" style="stroke: #000000; stroke-width: 0.8"/>
      </defs>
      <g>
       <use xlink:href="#m1de09e8755" x="115.363636" y="384.48" style="stroke: #000000; stroke-width: 0.8"/>
      </g>
     </g>
     <g id="text_1">
      <!-- 3 -->
      <g transform="translate(112.182386 399.078438) scale(0.1 -0.1)">
       <defs>
        <path id="DejaVuSans-33" d="M 2597 2516 
Q 3050 2419 3304 2112 
Q 3559 1806 3559 1356 
Q 3559 666 3084 287 
Q 2609 -91 1734 -91 
Q 1441 -91 1130 -33 
Q 819 25 488 141 
L 488 750 
Q 750 597 1062 519 
Q 1375 441 1716 441 
Q 2309 441 2620 675 
Q 2931 909 2931 1356 
Q 2931 1769 2642 2001 
Q 2353 2234 1838 2234 
L 1294 2234 
L 1294 2753 
L 1863 2753 
Q 2328 2753 2575 2939 
Q 2822 3125 2822 3475 
Q 2822 3834 2567 4026 
Q 2313 4219 1838 4219 
Q 1578 4219 1281 4162 
Q 984 4106 628 3988 
L 628 4550 
Q 988 4650 1302 4700 
Q 1616 4750 1894 4750 
Q 2613 4750 3031 4423 
Q 3450 4097 3450 3541 
Q 3450 3153 3228 2886 
Q 3006 2619 2597 2516 
z
" transform="scale(0.015625)"/>
       </defs>
       <use xlink:href="#DejaVuSans-33"/>
      </g>
     </g>
    </g>
    <g id="xtick_2">
     <g id="line2d_3">
      <path d="M 187.831169 384.48 
L 187.831169 51.84 
" clip-path="url(#pae9d421cf5)" style="fill: none; stroke: #b0b0b0; stroke-width: 0.8; stroke-linecap: square"/>
     </g>
     <g id="line2d_4">
      <g>
       <use xlink:href="#m1de09e8755" x="187.831169" y="384.48" style="stroke: #000000; stroke-width: 0.8"/>
      </g>
     </g>
     <g id="text_2">
      <!-- 4 -->
      <g transform="translate(184.649919 399.078438) scale(0.1 -0.1)">
       <defs>
        <path id="DejaVuSans-34" d="M 2419 4116 
L 825 1625 
L 2419 1625 
L 2419 4116 
z
M 2253 4666 
L 3047 4666 
L 3047 1625 
L 3713 1625 
L 3713 1100 
L 3047 1100 
L 3047 0 
L 2419 0 
L 2419 1100 
L 313 1100 
L 313 1709 
L 2253 4666 
z
" transform="scale(0.015625)"/>
       </defs>
       <use xlink:href="#DejaVuSans-34"/>
      </g>
     </g>
    </g>
    <g id="xtick_3">
     <g id="line2d_5">
      <path d="M 260.298701 384.48 
L 260.298701 51.84 
" clip-path="url(#pae9d421cf5)" style="fill: none; stroke: #b0b0b0; stroke-width: 0.8; stroke-linecap: square"/>
     </g>
     <g id="line2d_6">
      <g>
       <use xlink:href="#m1de09e8755" x="260.298701" y="384.48" style="stroke: #000000; stroke-width: 0.8"/>
      </g>
     </g>
     <g id="text_3">
      <!-- 5 -->
      <g transform="translate(257.117451 399.078438) scale(0.1 -0.1)">
       <defs>
        <path id="DejaVuSans-35" d="M 691 4666 
L 3169 4666 
L 3169 4134 
L 1269 4134 
L 1269 2991 
Q 1406 3038 1543 3061 
Q 1681 3084 1819 3084 
Q 2600 3084 3056 2656 
Q 3513 2228 3513 1497 
Q 3513 744 3044 326 
Q 2575 -91 1722 -91 
Q 1428 -91 1123 -41 
Q 819 9 494 109 
L 494 744 
Q 775 591 1075 516 
Q 1375 441 1709 441 
Q 2250 441 2565 725 
Q 2881 1009 2881 1497 
Q 2881 1984 2565 2268 
Q 2250 2553 1709 2553 
Q 1456 2553 1204 2497 
Q 953 2441 691 2322 
L 691 4666 
z
" transform="scale(0.015625)"/>
       </defs>
       <use xlink:href="#DejaVuSans-35"/>
      </g>
     </g>
    </g>
    <g id="xtick_4">
     <g id="line2d_7">
      <path d="M 332.766234 384.48 
L 332.766234 51.84 
" clip-path="url(#pae9d421cf5)" style="fill: none; stroke: #b0b0b0; stroke-width: 0.8; stroke-linecap: square"/>
     </g>
     <g id="line2d_8">
      <g>
       <use xlink:href="#m1de09e8755" x="332.766234" y="384.48" style="stroke: #000000; stroke-width: 0.8"/>
      </g>
     </g>
     <g id="text_4">
      <!-- 6 -->
      <g transform="translate(329.584984 399.078438) scale(0.1 -0.1)">
       <defs>
        <path id="DejaVuSans-36" d="M 2113 2584 
Q 1688 2584 1439 2293 
Q 1191 2003 1191 1497 
Q 1191 994 1439 701 
Q 1688 409 2113 409 
Q 2538 409 2786 701 
Q 3034 994 3034 1497 
Q 3034 2003 2786 2293 
Q 2538 2584 2113 2584 
z
M 3366 4563 
L 3366 3988 
Q 3128 4100 2886 4159 
Q 2644 4219 2406 4219 
Q 1781 4219 1451 3797 
Q 1122 3375 1075 2522 
Q 1259 2794 1537 2939 
Q 1816 3084 2150 3084 
Q 2853 3084 3261 2657 
Q 3669 2231 3669 1497 
Q 3669 778 3244 343 
Q 2819 -91 2113 -91 
Q 1303 -91 875 529 
Q 447 1150 447 2328 
Q 447 3434 972 4092 
Q 1497 4750 2381 4750 
Q 2619 4750 2861 4703 
Q 3103 4656 3366 4563 
z
" transform="scale(0.015625)"/>
       </defs>
       <use xlink:href="#DejaVuSans-36"/>
      </g>
     </g>
    </g>
    <g id="xtick_5">
     <g id="line2d_9">
      <path d="M 405.233766 384.48 
L 405.233766 51.84 
" clip-path="url(#pae9d421cf5)" style="fill: none; stroke: #b0b0b0; stroke-width: 0.8; stroke-linecap: square"/>
     </g>
     <g id="line2d_10">
      <g>
       <use xlink:href="#m1de09e8755" x="405.233766" y="384.48" style="stroke: #000000; stroke-width: 0.8"/>
      </g>
     </g>
     <g id="text_5">
      <!-- 7 -->
      <g transform="translate(402.052516 399.078438) scale(0.1 -0.1)">
       <defs>
        <path id="DejaVuSans-37" d="M 525 4666 
L 3525 4666 
L 3525 4397 
L 1831 0 
L 1172 0 
L 2766 4134 
L 525 4134 
L 525 4666 
z
" transform="scale(0.015625)"/>
       </defs>
       <use xlink:href="#DejaVuSans-37"/>
      </g>
     </g>
    </g>
    <g id="xtick_6">
     <g id="line2d_11">
      <path d="M 477.701299 384.48 
L 477.701299 51.84 
" clip-path="url(#pae9d421cf5)" style="fill: none; stroke: #b0b0b0; stroke-width: 0.8; stroke-linecap: square"/>
     </g>
     <g id="line2d_12">
      <g>
       <use xlink:href="#m1de09e8755" x="477.701299" y="384.48" style="stroke: #000000; stroke-width: 0.8"/>
      </g>
     </g>
     <g id="text_6">
      <!-- 8 -->
      <g transform="translate(474.520049 399.078438) scale(0.1 -0.1)">
       <defs>
        <path id="DejaVuSans-38" d="M 2034 2216 
Q 1584 2216 1326 1975 
Q 1069 1734 1069 1313 
Q 1069 891 1326 650 
Q 1584 409 2034 409 
Q 2484 409 2743 651 
Q 3003 894 3003 1313 
Q 3003 1734 2745 1975 
Q 2488 2216 2034 2216 
z
M 1403 2484 
Q 997 2584 770 2862 
Q 544 3141 544 3541 
Q 544 4100 942 4425 
Q 1341 4750 2034 4750 
Q 2731 4750 3128 4425 
Q 3525 4100 3525 3541 
Q 3525 3141 3298 2862 
Q 3072 2584 2669 2484 
Q 3125 2378 3379 2068 
Q 3634 1759 3634 1313 
Q 3634 634 3220 271 
Q 2806 -91 2034 -91 
Q 1263 -91 848 271 
Q 434 634 434 1313 
Q 434 1759 690 2068 
Q 947 2378 1403 2484 
z
M 1172 3481 
Q 1172 3119 1398 2916 
Q 1625 2713 2034 2713 
Q 2441 2713 2670 2916 
Q 2900 3119 2900 3481 
Q 2900 3844 2670 4047 
Q 2441 4250 2034 4250 
Q 1625 4250 1398 4047 
Q 1172 3844 1172 3481 
z
" transform="scale(0.015625)"/>
       </defs>
       <use xlink:href="#DejaVuSans-38"/>
      </g>
     </g>
    </g>
    <g id="xtick_7">
     <g id="line2d_13">
      <path d="M 550.168831 384.48 
L 550.168831 51.84 
" clip-path="url(#pae9d421cf5)" style="fill: none; stroke: #b0b0b0; stroke-width: 0.8; stroke-linecap: square"/>
     </g>
     <g id="line2d_14">
      <g>
       <use xlink:href="#m1de09e8755" x="550.168831" y="384.48" style="stroke: #000000; stroke-width: 0.8"/>
      </g>
     </g>
     <g id="text_7">
      <!-- 9 -->
      <g transform="translate(546.987581 399.078438) scale(0.1 -0.1)">
       <defs>
        <path id="DejaVuSans-39" d="M 703 97 
L 703 672 
Q 941 559 1184 500 
Q 1428 441 1663 441 
Q 2288 441 2617 861 
Q 2947 1281 2994 2138 
Q 2813 1869 2534 1725 
Q 2256 1581 1919 1581 
Q 1219 1581 811 2004 
Q 403 2428 403 3163 
Q 403 3881 828 4315 
Q 1253 4750 1959 4750 
Q 2769 4750 3195 4129 
Q 3622 3509 3622 2328 
Q 3622 1225 3098 567 
Q 2575 -91 1691 -91 
Q 1453 -91 1209 -44 
Q 966 3 703 97 
z
M 1959 2075 
Q 2384 2075 2632 2365 
Q 2881 2656 2881 3163 
Q 2881 3666 2632 3958 
Q 2384 4250 1959 4250 
Q 1534 4250 1286 3958 
Q 1038 3666 1038 3163 
Q 1038 2656 1286 2365 
Q 1534 2075 1959 2075 
z
" transform="scale(0.015625)"/>
       </defs>
       <use xlink:href="#DejaVuSans-39"/>
      </g>
     </g>
    </g>
    <g id="xtick_8">
     <g id="line2d_15">
      <path d="M 622.636364 384.48 
L 622.636364 51.84 
" clip-path="url(#pae9d421cf5)" style="fill: none; stroke: #b0b0b0; stroke-width: 0.8; stroke-linecap: square"/>
     </g>
     <g id="line2d_16">
      <g>
       <use xlink:href="#m1de09e8755" x="622.636364" y="384.48" style="stroke: #000000; stroke-width: 0.8"/>
      </g>
     </g>
     <g id="text_8">
      <!-- 10 -->
      <g transform="translate(616.273864 399.078438) scale(0.1 -0.1)">
       <defs>
        <path id="DejaVuSans-31" d="M 794 531 
L 1825 531 
L 1825 4091 
L 703 3866 
L 703 4441 
L 1819 4666 
L 2450 4666 
L 2450 531 
L 3481 531 
L 3481 0 
L 794 0 
L 794 531 
z
" transform="scale(0.015625)"/>
        <path id="DejaVuSans-30" d="M 2034 4250 
Q 1547 4250 1301 3770 
Q 1056 3291 1056 2328 
Q 1056 1369 1301 889 
Q 1547 409 2034 409 
Q 2525 409 2770 889 
Q 3016 1369 3016 2328 
Q 3016 3291 2770 3770 
Q 2525 4250 2034 4250 
z
M 2034 4750 
Q 2819 4750 3233 4129 
Q 3647 3509 3647 2328 
Q 3647 1150 3233 529 
Q 2819 -91 2034 -91 
Q 1250 -91 836 529 
Q 422 1150 422 2328 
Q 422 3509 836 4129 
Q 1250 4750 2034 4750 
z
" transform="scale(0.015625)"/>
       </defs>
       <use xlink:href="#DejaVuSans-31"/>
       <use xlink:href="#DejaVuSans-30" x="63.623047"/>
      </g>
     </g>
    </g>
    <g id="text_9">
     <!-- M -->
     <g transform="translate(364.685938 412.756563) scale(0.1 -0.1)">
      <defs>
       <path id="DejaVuSans-4d" d="M 628 4666 
L 1569 4666 
L 2759 1491 
L 3956 4666 
L 4897 4666 
L 4897 0 
L 4281 0 
L 4281 4097 
L 3078 897 
L 2444 897 
L 1241 4097 
L 1241 0 
L 628 0 
L 628 4666 
z
" transform="scale(0.015625)"/>
      </defs>
      <use xlink:href="#DejaVuSans-4d"/>
     </g>
    </g>
   </g>
   <g id="matplotlib.axis_2">
    <g id="ytick_1">
     <g id="line2d_17">
      <path d="M 90 373.413016 
L 648 373.413016 
" clip-path="url(#pae9d421cf5)" style="fill: none; stroke: #b0b0b0; stroke-width: 0.8; stroke-linecap: square"/>
     </g>
     <g id="line2d_18">
      <defs>
       <path id="m72cc77d83e" d="M 0 0 
L -3.5 0 
" style="stroke: #000000; stroke-width: 0.8"/>
      </defs>
      <g>
       <use xlink:href="#m72cc77d83e" x="90" y="373.413016" style="stroke: #000000; stroke-width: 0.8"/>
      </g>
     </g>
     <g id="text_10">
      <!-- 100000 -->
      <g transform="translate(44.825 377.212234) scale(0.1 -0.1)">
       <use xlink:href="#DejaVuSans-31"/>
       <use xlink:href="#DejaVuSans-30" x="63.623047"/>
       <use xlink:href="#DejaVuSans-30" x="127.246094"/>
       <use xlink:href="#DejaVuSans-30" x="190.869141"/>
       <use xlink:href="#DejaVuSans-30" x="254.492188"/>
       <use xlink:href="#DejaVuSans-30" x="318.115234"/>
      </g>
     </g>
    </g>
    <g id="ytick_2">
     <g id="line2d_19">
      <path d="M 90 317.121132 
L 648 317.121132 
" clip-path="url(#pae9d421cf5)" style="fill: none; stroke: #b0b0b0; stroke-width: 0.8; stroke-linecap: square"/>
     </g>
     <g id="line2d_20">
      <g>
       <use xlink:href="#m72cc77d83e" x="90" y="317.121132" style="stroke: #000000; stroke-width: 0.8"/>
      </g>
     </g>
     <g id="text_11">
      <!-- 150000 -->
      <g transform="translate(44.825 320.920351) scale(0.1 -0.1)">
       <use xlink:href="#DejaVuSans-31"/>
       <use xlink:href="#DejaVuSans-35" x="63.623047"/>
       <use xlink:href="#DejaVuSans-30" x="127.246094"/>
       <use xlink:href="#DejaVuSans-30" x="190.869141"/>
       <use xlink:href="#DejaVuSans-30" x="254.492188"/>
       <use xlink:href="#DejaVuSans-30" x="318.115234"/>
      </g>
     </g>
    </g>
    <g id="ytick_3">
     <g id="line2d_21">
      <path d="M 90 260.829248 
L 648 260.829248 
" clip-path="url(#pae9d421cf5)" style="fill: none; stroke: #b0b0b0; stroke-width: 0.8; stroke-linecap: square"/>
     </g>
     <g id="line2d_22">
      <g>
       <use xlink:href="#m72cc77d83e" x="90" y="260.829248" style="stroke: #000000; stroke-width: 0.8"/>
      </g>
     </g>
     <g id="text_12">
      <!-- 200000 -->
      <g transform="translate(44.825 264.628467) scale(0.1 -0.1)">
       <defs>
        <path id="DejaVuSans-32" d="M 1228 531 
L 3431 531 
L 3431 0 
L 469 0 
L 469 531 
Q 828 903 1448 1529 
Q 2069 2156 2228 2338 
Q 2531 2678 2651 2914 
Q 2772 3150 2772 3378 
Q 2772 3750 2511 3984 
Q 2250 4219 1831 4219 
Q 1534 4219 1204 4116 
Q 875 4013 500 3803 
L 500 4441 
Q 881 4594 1212 4672 
Q 1544 4750 1819 4750 
Q 2544 4750 2975 4387 
Q 3406 4025 3406 3419 
Q 3406 3131 3298 2873 
Q 3191 2616 2906 2266 
Q 2828 2175 2409 1742 
Q 1991 1309 1228 531 
z
" transform="scale(0.015625)"/>
       </defs>
       <use xlink:href="#DejaVuSans-32"/>
       <use xlink:href="#DejaVuSans-30" x="63.623047"/>
       <use xlink:href="#DejaVuSans-30" x="127.246094"/>
       <use xlink:href="#DejaVuSans-30" x="190.869141"/>
       <use xlink:href="#DejaVuSans-30" x="254.492188"/>
       <use xlink:href="#DejaVuSans-30" x="318.115234"/>
      </g>
     </g>
    </g>
    <g id="ytick_4">
     <g id="line2d_23">
      <path d="M 90 204.537364 
L 648 204.537364 
" clip-path="url(#pae9d421cf5)" style="fill: none; stroke: #b0b0b0; stroke-width: 0.8; stroke-linecap: square"/>
     </g>
     <g id="line2d_24">
      <g>
       <use xlink:href="#m72cc77d83e" x="90" y="204.537364" style="stroke: #000000; stroke-width: 0.8"/>
      </g>
     </g>
     <g id="text_13">
      <!-- 250000 -->
      <g transform="translate(44.825 208.336583) scale(0.1 -0.1)">
       <use xlink:href="#DejaVuSans-32"/>
       <use xlink:href="#DejaVuSans-35" x="63.623047"/>
       <use xlink:href="#DejaVuSans-30" x="127.246094"/>
       <use xlink:href="#DejaVuSans-30" x="190.869141"/>
       <use xlink:href="#DejaVuSans-30" x="254.492188"/>
       <use xlink:href="#DejaVuSans-30" x="318.115234"/>
      </g>
     </g>
    </g>
    <g id="ytick_5">
     <g id="line2d_25">
      <path d="M 90 148.24548 
L 648 148.24548 
" clip-path="url(#pae9d421cf5)" style="fill: none; stroke: #b0b0b0; stroke-width: 0.8; stroke-linecap: square"/>
     </g>
     <g id="line2d_26">
      <g>
       <use xlink:href="#m72cc77d83e" x="90" y="148.24548" style="stroke: #000000; stroke-width: 0.8"/>
      </g>
     </g>
     <g id="text_14">
      <!-- 300000 -->
      <g transform="translate(44.825 152.044699) scale(0.1 -0.1)">
       <use xlink:href="#DejaVuSans-33"/>
       <use xlink:href="#DejaVuSans-30" x="63.623047"/>
       <use xlink:href="#DejaVuSans-30" x="127.246094"/>
       <use xlink:href="#DejaVuSans-30" x="190.869141"/>
       <use xlink:href="#DejaVuSans-30" x="254.492188"/>
       <use xlink:href="#DejaVuSans-30" x="318.115234"/>
      </g>
     </g>
    </g>
    <g id="ytick_6">
     <g id="line2d_27">
      <path d="M 90 91.953596 
L 648 91.953596 
" clip-path="url(#pae9d421cf5)" style="fill: none; stroke: #b0b0b0; stroke-width: 0.8; stroke-linecap: square"/>
     </g>
     <g id="line2d_28">
      <g>
       <use xlink:href="#m72cc77d83e" x="90" y="91.953596" style="stroke: #000000; stroke-width: 0.8"/>
      </g>
     </g>
     <g id="text_15">
      <!-- 350000 -->
      <g transform="translate(44.825 95.752815) scale(0.1 -0.1)">
       <use xlink:href="#DejaVuSans-33"/>
       <use xlink:href="#DejaVuSans-35" x="63.623047"/>
       <use xlink:href="#DejaVuSans-30" x="127.246094"/>
       <use xlink:href="#DejaVuSans-30" x="190.869141"/>
       <use xlink:href="#DejaVuSans-30" x="254.492188"/>
       <use xlink:href="#DejaVuSans-30" x="318.115234"/>
      </g>
     </g>
    </g>
    <g id="text_16">
     <!-- $K_{min}$ -->
     <g transform="translate(38.745312 228.21) rotate(-90) scale(0.1 -0.1)">
      <defs>
       <path id="DejaVuSans-Oblique-4b" d="M 1081 4666 
L 1716 4666 
L 1331 2700 
L 3781 4666 
L 4622 4666 
L 1850 2438 
L 3878 0 
L 3109 0 
L 1247 2272 
L 806 0 
L 172 0 
L 1081 4666 
z
" transform="scale(0.015625)"/>
       <path id="DejaVuSans-Oblique-6d" d="M 5747 2113 
L 5338 0 
L 4763 0 
L 5166 2094 
Q 5191 2228 5203 2325 
Q 5216 2422 5216 2491 
Q 5216 2772 5059 2928 
Q 4903 3084 4622 3084 
Q 4203 3084 3875 2770 
Q 3547 2456 3450 1953 
L 3066 0 
L 2491 0 
L 2900 2094 
Q 2925 2209 2937 2307 
Q 2950 2406 2950 2484 
Q 2950 2769 2794 2926 
Q 2638 3084 2363 3084 
Q 1938 3084 1609 2770 
Q 1281 2456 1184 1953 
L 800 0 
L 225 0 
L 909 3500 
L 1484 3500 
L 1375 2956 
Q 1609 3263 1923 3423 
Q 2238 3584 2597 3584 
Q 2978 3584 3223 3384 
Q 3469 3184 3519 2828 
Q 3781 3197 4126 3390 
Q 4472 3584 4856 3584 
Q 5306 3584 5551 3325 
Q 5797 3066 5797 2591 
Q 5797 2488 5784 2364 
Q 5772 2241 5747 2113 
z
" transform="scale(0.015625)"/>
       <path id="DejaVuSans-Oblique-69" d="M 1172 4863 
L 1747 4863 
L 1606 4134 
L 1031 4134 
L 1172 4863 
z
M 909 3500 
L 1484 3500 
L 800 0 
L 225 0 
L 909 3500 
z
" transform="scale(0.015625)"/>
       <path id="DejaVuSans-Oblique-6e" d="M 3566 2113 
L 3156 0 
L 2578 0 
L 2988 2091 
Q 3016 2238 3031 2350 
Q 3047 2463 3047 2528 
Q 3047 2791 2881 2937 
Q 2716 3084 2419 3084 
Q 1956 3084 1622 2776 
Q 1288 2469 1184 1941 
L 800 0 
L 225 0 
L 903 3500 
L 1478 3500 
L 1363 2950 
Q 1603 3253 1940 3418 
Q 2278 3584 2650 3584 
Q 3113 3584 3367 3334 
Q 3622 3084 3622 2631 
Q 3622 2519 3608 2391 
Q 3594 2263 3566 2113 
z
" transform="scale(0.015625)"/>
      </defs>
      <use xlink:href="#DejaVuSans-Oblique-4b" transform="translate(0 0.09375)"/>
      <use xlink:href="#DejaVuSans-Oblique-6d" transform="translate(65.576172 -16.3125) scale(0.7)"/>
      <use xlink:href="#DejaVuSans-Oblique-69" transform="translate(133.764648 -16.3125) scale(0.7)"/>
      <use xlink:href="#DejaVuSans-Oblique-6e" transform="translate(153.212891 -16.3125) scale(0.7)"/>
     </g>
    </g>
   </g>
   <g id="line2d_29">
    <path d="M 115.363636 205.043991 
L 187.831169 250.190082 
L 260.298701 178.41793 
L 332.766234 305.693879 
L 405.233766 197.782338 
L 477.701299 318.86618 
L 550.168831 172.676158 
L 622.636364 349.770424 
" clip-path="url(#pae9d421cf5)" style="fill: none; stroke: #8000ff; stroke-width: 3; stroke-linecap: square"/>
    <defs>
     <path id="m6a50f63b4c" d="M 0 3 
C 0.795609 3 1.55874 2.683901 2.12132 2.12132 
C 2.683901 1.55874 3 0.795609 3 0 
C 3 -0.795609 2.683901 -1.55874 2.12132 -2.12132 
C 1.55874 -2.683901 0.795609 -3 0 -3 
C -0.795609 -3 -1.55874 -2.683901 -2.12132 -2.12132 
C -2.683901 -1.55874 -3 -0.795609 -3 0 
C -3 0.795609 -2.683901 1.55874 -2.12132 2.12132 
C -1.55874 2.683901 -0.795609 3 0 3 
z
" style="stroke: #8000ff"/>
    </defs>
    <g clip-path="url(#pae9d421cf5)">
     <use xlink:href="#m6a50f63b4c" x="115.363636" y="205.043991" style="fill: #8000ff; stroke: #8000ff"/>
     <use xlink:href="#m6a50f63b4c" x="187.831169" y="250.190082" style="fill: #8000ff; stroke: #8000ff"/>
     <use xlink:href="#m6a50f63b4c" x="260.298701" y="178.41793" style="fill: #8000ff; stroke: #8000ff"/>
     <use xlink:href="#m6a50f63b4c" x="332.766234" y="305.693879" style="fill: #8000ff; stroke: #8000ff"/>
     <use xlink:href="#m6a50f63b4c" x="405.233766" y="197.782338" style="fill: #8000ff; stroke: #8000ff"/>
     <use xlink:href="#m6a50f63b4c" x="477.701299" y="318.86618" style="fill: #8000ff; stroke: #8000ff"/>
     <use xlink:href="#m6a50f63b4c" x="550.168831" y="172.676158" style="fill: #8000ff; stroke: #8000ff"/>
     <use xlink:href="#m6a50f63b4c" x="622.636364" y="349.770424" style="fill: #8000ff; stroke: #8000ff"/>
    </g>
   </g>
   <g id="line2d_30">
    <path d="M 115.363636 102.930514 
L 187.831169 177.292092 
L 260.298701 166.315175 
L 332.766234 292.57787 
L 405.233766 212.587103 
L 477.701299 334.6842 
L 550.168831 185.961042 
L 622.636364 369.36 
" clip-path="url(#pae9d421cf5)" style="fill: none; stroke: #4856fb; stroke-width: 3; stroke-linecap: square"/>
    <defs>
     <path id="m62456bccf1" d="M 0 3 
C 0.795609 3 1.55874 2.683901 2.12132 2.12132 
C 2.683901 1.55874 3 0.795609 3 0 
C 3 -0.795609 2.683901 -1.55874 2.12132 -2.12132 
C 1.55874 -2.683901 0.795609 -3 0 -3 
C -0.795609 -3 -1.55874 -2.683901 -2.12132 -2.12132 
C -2.683901 -1.55874 -3 -0.795609 -3 0 
C -3 0.795609 -2.683901 1.55874 -2.12132 2.12132 
C -1.55874 2.683901 -0.795609 3 0 3 
z
" style="stroke: #4856fb"/>
    </defs>
    <g clip-path="url(#pae9d421cf5)">
     <use xlink:href="#m62456bccf1" x="115.363636" y="102.930514" style="fill: #4856fb; stroke: #4856fb"/>
     <use xlink:href="#m62456bccf1" x="187.831169" y="177.292092" style="fill: #4856fb; stroke: #4856fb"/>
     <use xlink:href="#m62456bccf1" x="260.298701" y="166.315175" style="fill: #4856fb; stroke: #4856fb"/>
     <use xlink:href="#m62456bccf1" x="332.766234" y="292.57787" style="fill: #4856fb; stroke: #4856fb"/>
     <use xlink:href="#m62456bccf1" x="405.233766" y="212.587103" style="fill: #4856fb; stroke: #4856fb"/>
     <use xlink:href="#m62456bccf1" x="477.701299" y="334.6842" style="fill: #4856fb; stroke: #4856fb"/>
     <use xlink:href="#m62456bccf1" x="550.168831" y="185.961042" style="fill: #4856fb; stroke: #4856fb"/>
     <use xlink:href="#m62456bccf1" x="622.636364" y="369.36" style="fill: #4856fb; stroke: #4856fb"/>
    </g>
   </g>
   <g id="line2d_31">
    <path d="M 115.363636 205.043991 
L 187.831169 250.190082 
L 260.298701 178.41793 
L 332.766234 305.693879 
L 405.233766 184.441162 
L 477.701299 308.452182 
L 550.168831 157.252182 
L 622.636364 302.372658 
" clip-path="url(#pae9d421cf5)" style="fill: none; stroke: #10a2f0; stroke-width: 1.5; stroke-linecap: square"/>
    <defs>
     <path id="m89e25fe28d" d="M 0 3 
C 0.795609 3 1.55874 2.683901 2.12132 2.12132 
C 2.683901 1.55874 3 0.795609 3 0 
C 3 -0.795609 2.683901 -1.55874 2.12132 -2.12132 
C 1.55874 -2.683901 0.795609 -3 0 -3 
C -0.795609 -3 -1.55874 -2.683901 -2.12132 -2.12132 
C -2.683901 -1.55874 -3 -0.795609 -3 0 
C -3 0.795609 -2.683901 1.55874 -2.12132 2.12132 
C -1.55874 2.683901 -0.795609 3 0 3 
z
" style="stroke: #10a2f0"/>
    </defs>
    <g clip-path="url(#pae9d421cf5)">
     <use xlink:href="#m89e25fe28d" x="115.363636" y="205.043991" style="fill: #10a2f0; stroke: #10a2f0"/>
     <use xlink:href="#m89e25fe28d" x="187.831169" y="250.190082" style="fill: #10a2f0; stroke: #10a2f0"/>
     <use xlink:href="#m89e25fe28d" x="260.298701" y="178.41793" style="fill: #10a2f0; stroke: #10a2f0"/>
     <use xlink:href="#m89e25fe28d" x="332.766234" y="305.693879" style="fill: #10a2f0; stroke: #10a2f0"/>
     <use xlink:href="#m89e25fe28d" x="405.233766" y="184.441162" style="fill: #10a2f0; stroke: #10a2f0"/>
     <use xlink:href="#m89e25fe28d" x="477.701299" y="308.452182" style="fill: #10a2f0; stroke: #10a2f0"/>
     <use xlink:href="#m89e25fe28d" x="550.168831" y="157.252182" style="fill: #10a2f0; stroke: #10a2f0"/>
     <use xlink:href="#m89e25fe28d" x="622.636364" y="302.372658" style="fill: #10a2f0; stroke: #10a2f0"/>
    </g>
   </g>
   <g id="line2d_32">
    <path d="M 115.363636 203.861862 
L 187.831169 250.190082 
L 260.298701 177.573552 
L 332.766234 305.468712 
L 405.233766 184.441162 
L 477.701299 313.912494 
L 550.168831 140.252033 
L 622.636364 307.607803 
" clip-path="url(#pae9d421cf5)" style="fill: none; stroke: #2adddd; stroke-width: 1.5; stroke-linecap: square"/>
    <defs>
     <path id="m1bfd43f09c" d="M 0 3 
C 0.795609 3 1.55874 2.683901 2.12132 2.12132 
C 2.683901 1.55874 3 0.795609 3 0 
C 3 -0.795609 2.683901 -1.55874 2.12132 -2.12132 
C 1.55874 -2.683901 0.795609 -3 0 -3 
C -0.795609 -3 -1.55874 -2.683901 -2.12132 -2.12132 
C -2.683901 -1.55874 -3 -0.795609 -3 0 
C -3 0.795609 -2.683901 1.55874 -2.12132 2.12132 
C -1.55874 2.683901 -0.795609 3 0 3 
z
" style="stroke: #2adddd"/>
    </defs>
    <g clip-path="url(#pae9d421cf5)">
     <use xlink:href="#m1bfd43f09c" x="115.363636" y="203.861862" style="fill: #2adddd; stroke: #2adddd"/>
     <use xlink:href="#m1bfd43f09c" x="187.831169" y="250.190082" style="fill: #2adddd; stroke: #2adddd"/>
     <use xlink:href="#m1bfd43f09c" x="260.298701" y="177.573552" style="fill: #2adddd; stroke: #2adddd"/>
     <use xlink:href="#m1bfd43f09c" x="332.766234" y="305.468712" style="fill: #2adddd; stroke: #2adddd"/>
     <use xlink:href="#m1bfd43f09c" x="405.233766" y="184.441162" style="fill: #2adddd; stroke: #2adddd"/>
     <use xlink:href="#m1bfd43f09c" x="477.701299" y="313.912494" style="fill: #2adddd; stroke: #2adddd"/>
     <use xlink:href="#m1bfd43f09c" x="550.168831" y="140.252033" style="fill: #2adddd; stroke: #2adddd"/>
     <use xlink:href="#m1bfd43f09c" x="622.636364" y="307.607803" style="fill: #2adddd; stroke: #2adddd"/>
    </g>
   </g>
   <g id="line2d_33">
    <path d="M 115.363636 203.636694 
L 187.831169 249.176828 
L 260.298701 162.487327 
L 332.766234 305.074669 
L 405.233766 171.325153 
L 477.701299 289.763276 
L 550.168831 149.14615 
L 622.636364 277.32277 
" clip-path="url(#pae9d421cf5)" style="fill: none; stroke: #62fbc4; stroke-width: 1.5; stroke-linecap: square"/>
    <defs>
     <path id="m7331a42224" d="M 0 3 
C 0.795609 3 1.55874 2.683901 2.12132 2.12132 
C 2.683901 1.55874 3 0.795609 3 0 
C 3 -0.795609 2.683901 -1.55874 2.12132 -2.12132 
C 1.55874 -2.683901 0.795609 -3 0 -3 
C -0.795609 -3 -1.55874 -2.683901 -2.12132 -2.12132 
C -2.683901 -1.55874 -3 -0.795609 -3 0 
C -3 0.795609 -2.683901 1.55874 -2.12132 2.12132 
C -1.55874 2.683901 -0.795609 3 0 3 
z
" style="stroke: #62fbc4"/>
    </defs>
    <g clip-path="url(#pae9d421cf5)">
     <use xlink:href="#m7331a42224" x="115.363636" y="203.636694" style="fill: #62fbc4; stroke: #62fbc4"/>
     <use xlink:href="#m7331a42224" x="187.831169" y="249.176828" style="fill: #62fbc4; stroke: #62fbc4"/>
     <use xlink:href="#m7331a42224" x="260.298701" y="162.487327" style="fill: #62fbc4; stroke: #62fbc4"/>
     <use xlink:href="#m7331a42224" x="332.766234" y="305.074669" style="fill: #62fbc4; stroke: #62fbc4"/>
     <use xlink:href="#m7331a42224" x="405.233766" y="171.325153" style="fill: #62fbc4; stroke: #62fbc4"/>
     <use xlink:href="#m7331a42224" x="477.701299" y="289.763276" style="fill: #62fbc4; stroke: #62fbc4"/>
     <use xlink:href="#m7331a42224" x="550.168831" y="149.14615" style="fill: #62fbc4; stroke: #62fbc4"/>
     <use xlink:href="#m7331a42224" x="622.636364" y="277.32277" style="fill: #62fbc4; stroke: #62fbc4"/>
    </g>
   </g>
   <g id="line2d_34">
    <path d="M 115.363636 203.636694 
L 187.831169 249.176828 
L 260.298701 162.487327 
L 332.766234 305.074669 
L 405.233766 171.325153 
L 477.701299 289.763276 
L 550.168831 132.371169 
L 622.636364 294.885838 
" clip-path="url(#pae9d421cf5)" style="fill: none; stroke: #9cfba4; stroke-width: 1.5; stroke-linecap: square"/>
    <defs>
     <path id="m5b63a696e2" d="M 0 3 
C 0.795609 3 1.55874 2.683901 2.12132 2.12132 
C 2.683901 1.55874 3 0.795609 3 0 
C 3 -0.795609 2.683901 -1.55874 2.12132 -2.12132 
C 1.55874 -2.683901 0.795609 -3 0 -3 
C -0.795609 -3 -1.55874 -2.683901 -2.12132 -2.12132 
C -2.683901 -1.55874 -3 -0.795609 -3 0 
C -3 0.795609 -2.683901 1.55874 -2.12132 2.12132 
C -1.55874 2.683901 -0.795609 3 0 3 
z
" style="stroke: #9cfba4"/>
    </defs>
    <g clip-path="url(#pae9d421cf5)">
     <use xlink:href="#m5b63a696e2" x="115.363636" y="203.636694" style="fill: #9cfba4; stroke: #9cfba4"/>
     <use xlink:href="#m5b63a696e2" x="187.831169" y="249.176828" style="fill: #9cfba4; stroke: #9cfba4"/>
     <use xlink:href="#m5b63a696e2" x="260.298701" y="162.487327" style="fill: #9cfba4; stroke: #9cfba4"/>
     <use xlink:href="#m5b63a696e2" x="332.766234" y="305.074669" style="fill: #9cfba4; stroke: #9cfba4"/>
     <use xlink:href="#m5b63a696e2" x="405.233766" y="171.325153" style="fill: #9cfba4; stroke: #9cfba4"/>
     <use xlink:href="#m5b63a696e2" x="477.701299" y="289.763276" style="fill: #9cfba4; stroke: #9cfba4"/>
     <use xlink:href="#m5b63a696e2" x="550.168831" y="132.371169" style="fill: #9cfba4; stroke: #9cfba4"/>
     <use xlink:href="#m5b63a696e2" x="622.636364" y="294.885838" style="fill: #9cfba4; stroke: #9cfba4"/>
    </g>
   </g>
   <g id="line2d_35">
    <path d="M 115.363636 102.930514 
L 187.831169 176.278838 
L 260.298701 165.470797 
L 332.766234 290.269903 
L 405.233766 181.795443 
L 477.701299 314.700581 
L 550.168831 166.934386 
L 622.636364 305.637587 
" clip-path="url(#pae9d421cf5)" style="fill: none; stroke: #d4dd80; stroke-width: 1.5; stroke-linecap: square"/>
    <defs>
     <path id="mab40086d8b" d="M 0 3 
C 0.795609 3 1.55874 2.683901 2.12132 2.12132 
C 2.683901 1.55874 3 0.795609 3 0 
C 3 -0.795609 2.683901 -1.55874 2.12132 -2.12132 
C 1.55874 -2.683901 0.795609 -3 0 -3 
C -0.795609 -3 -1.55874 -2.683901 -2.12132 -2.12132 
C -2.683901 -1.55874 -3 -0.795609 -3 0 
C -3 0.795609 -2.683901 1.55874 -2.12132 2.12132 
C -1.55874 2.683901 -0.795609 3 0 3 
z
" style="stroke: #d4dd80"/>
    </defs>
    <g clip-path="url(#pae9d421cf5)">
     <use xlink:href="#mab40086d8b" x="115.363636" y="102.930514" style="fill: #d4dd80; stroke: #d4dd80"/>
     <use xlink:href="#mab40086d8b" x="187.831169" y="176.278838" style="fill: #d4dd80; stroke: #d4dd80"/>
     <use xlink:href="#mab40086d8b" x="260.298701" y="165.470797" style="fill: #d4dd80; stroke: #d4dd80"/>
     <use xlink:href="#mab40086d8b" x="332.766234" y="290.269903" style="fill: #d4dd80; stroke: #d4dd80"/>
     <use xlink:href="#mab40086d8b" x="405.233766" y="181.795443" style="fill: #d4dd80; stroke: #d4dd80"/>
     <use xlink:href="#mab40086d8b" x="477.701299" y="314.700581" style="fill: #d4dd80; stroke: #d4dd80"/>
     <use xlink:href="#mab40086d8b" x="550.168831" y="166.934386" style="fill: #d4dd80; stroke: #d4dd80"/>
     <use xlink:href="#mab40086d8b" x="622.636364" y="305.637587" style="fill: #d4dd80; stroke: #d4dd80"/>
    </g>
   </g>
   <g id="line2d_36">
    <path d="M 115.363636 102.930514 
L 187.831169 177.292092 
L 260.298701 156.520387 
L 332.766234 290.044736 
L 405.233766 181.795443 
L 477.701299 319.541683 
L 550.168831 137.099687 
L 622.636364 317.06484 
" clip-path="url(#pae9d421cf5)" style="fill: none; stroke: #ffa256; stroke-width: 1.5; stroke-linecap: square"/>
    <defs>
     <path id="ma5d3f08c3a" d="M 0 3 
C 0.795609 3 1.55874 2.683901 2.12132 2.12132 
C 2.683901 1.55874 3 0.795609 3 0 
C 3 -0.795609 2.683901 -1.55874 2.12132 -2.12132 
C 1.55874 -2.683901 0.795609 -3 0 -3 
C -0.795609 -3 -1.55874 -2.683901 -2.12132 -2.12132 
C -2.683901 -1.55874 -3 -0.795609 -3 0 
C -3 0.795609 -2.683901 1.55874 -2.12132 2.12132 
C -1.55874 2.683901 -0.795609 3 0 3 
z
" style="stroke: #ffa256"/>
    </defs>
    <g clip-path="url(#pae9d421cf5)">
     <use xlink:href="#ma5d3f08c3a" x="115.363636" y="102.930514" style="fill: #ffa256; stroke: #ffa256"/>
     <use xlink:href="#ma5d3f08c3a" x="187.831169" y="177.292092" style="fill: #ffa256; stroke: #ffa256"/>
     <use xlink:href="#ma5d3f08c3a" x="260.298701" y="156.520387" style="fill: #ffa256; stroke: #ffa256"/>
     <use xlink:href="#ma5d3f08c3a" x="332.766234" y="290.044736" style="fill: #ffa256; stroke: #ffa256"/>
     <use xlink:href="#ma5d3f08c3a" x="405.233766" y="181.795443" style="fill: #ffa256; stroke: #ffa256"/>
     <use xlink:href="#ma5d3f08c3a" x="477.701299" y="319.541683" style="fill: #ffa256; stroke: #ffa256"/>
     <use xlink:href="#ma5d3f08c3a" x="550.168831" y="137.099687" style="fill: #ffa256; stroke: #ffa256"/>
     <use xlink:href="#ma5d3f08c3a" x="622.636364" y="317.06484" style="fill: #ffa256; stroke: #ffa256"/>
    </g>
   </g>
   <g id="line2d_37">
    <path d="M 115.363636 68.085838 
L 187.831169 66.96 
L 260.298701 80.132301 
L 332.766234 285.99172 
L 405.233766 176.504006 
L 477.701299 290.157319 
L 550.168831 90.208548 
L 622.636364 258.408697 
" clip-path="url(#pae9d421cf5)" style="fill: none; stroke: #ff562c; stroke-width: 1.5; stroke-linecap: square"/>
    <defs>
     <path id="m3b8db344a1" d="M 0 3 
C 0.795609 3 1.55874 2.683901 2.12132 2.12132 
C 2.683901 1.55874 3 0.795609 3 0 
C 3 -0.795609 2.683901 -1.55874 2.12132 -2.12132 
C 1.55874 -2.683901 0.795609 -3 0 -3 
C -0.795609 -3 -1.55874 -2.683901 -2.12132 -2.12132 
C -2.683901 -1.55874 -3 -0.795609 -3 0 
C -3 0.795609 -2.683901 1.55874 -2.12132 2.12132 
C -1.55874 2.683901 -0.795609 3 0 3 
z
" style="stroke: #ff562c"/>
    </defs>
    <g clip-path="url(#pae9d421cf5)">
     <use xlink:href="#m3b8db344a1" x="115.363636" y="68.085838" style="fill: #ff562c; stroke: #ff562c"/>
     <use xlink:href="#m3b8db344a1" x="187.831169" y="66.96" style="fill: #ff562c; stroke: #ff562c"/>
     <use xlink:href="#m3b8db344a1" x="260.298701" y="80.132301" style="fill: #ff562c; stroke: #ff562c"/>
     <use xlink:href="#m3b8db344a1" x="332.766234" y="285.99172" style="fill: #ff562c; stroke: #ff562c"/>
     <use xlink:href="#m3b8db344a1" x="405.233766" y="176.504006" style="fill: #ff562c; stroke: #ff562c"/>
     <use xlink:href="#m3b8db344a1" x="477.701299" y="290.157319" style="fill: #ff562c; stroke: #ff562c"/>
     <use xlink:href="#m3b8db344a1" x="550.168831" y="90.208548" style="fill: #ff562c; stroke: #ff562c"/>
     <use xlink:href="#m3b8db344a1" x="622.636364" y="258.408697" style="fill: #ff562c; stroke: #ff562c"/>
    </g>
   </g>
   <g id="line2d_38">
    <path d="M 115.363636 68.085838 
L 187.831169 66.96 
L 260.298701 80.132301 
L 332.766234 285.99172 
L 405.233766 176.504006 
L 477.701299 290.157319 
L 550.168831 68.986508 
L 622.636364 303.892539 
" clip-path="url(#pae9d421cf5)" style="fill: none; stroke: #ff0000; stroke-width: 1.5; stroke-linecap: square"/>
    <defs>
     <path id="m4b75bf0e96" d="M 0 3 
C 0.795609 3 1.55874 2.683901 2.12132 2.12132 
C 2.683901 1.55874 3 0.795609 3 0 
C 3 -0.795609 2.683901 -1.55874 2.12132 -2.12132 
C 1.55874 -2.683901 0.795609 -3 0 -3 
C -0.795609 -3 -1.55874 -2.683901 -2.12132 -2.12132 
C -2.683901 -1.55874 -3 -0.795609 -3 0 
C -3 0.795609 -2.683901 1.55874 -2.12132 2.12132 
C -1.55874 2.683901 -0.795609 3 0 3 
z
" style="stroke: #ff0000"/>
    </defs>
    <g clip-path="url(#pae9d421cf5)">
     <use xlink:href="#m4b75bf0e96" x="115.363636" y="68.085838" style="fill: #ff0000; stroke: #ff0000"/>
     <use xlink:href="#m4b75bf0e96" x="187.831169" y="66.96" style="fill: #ff0000; stroke: #ff0000"/>
     <use xlink:href="#m4b75bf0e96" x="260.298701" y="80.132301" style="fill: #ff0000; stroke: #ff0000"/>
     <use xlink:href="#m4b75bf0e96" x="332.766234" y="285.99172" style="fill: #ff0000; stroke: #ff0000"/>
     <use xlink:href="#m4b75bf0e96" x="405.233766" y="176.504006" style="fill: #ff0000; stroke: #ff0000"/>
     <use xlink:href="#m4b75bf0e96" x="477.701299" y="290.157319" style="fill: #ff0000; stroke: #ff0000"/>
     <use xlink:href="#m4b75bf0e96" x="550.168831" y="68.986508" style="fill: #ff0000; stroke: #ff0000"/>
     <use xlink:href="#m4b75bf0e96" x="622.636364" y="303.892539" style="fill: #ff0000; stroke: #ff0000"/>
    </g>
   </g>
   <g id="patch_3">
    <path d="M 90 384.48 
L 90 51.84 
" style="fill: none; stroke: #000000; stroke-width: 0.8; stroke-linejoin: miter; stroke-linecap: square"/>
   </g>
   <g id="patch_4">
    <path d="M 648 384.48 
L 648 51.84 
" style="fill: none; stroke: #000000; stroke-width: 0.8; stroke-linejoin: miter; stroke-linecap: square"/>
   </g>
   <g id="patch_5">
    <path d="M 90 384.48 
L 648 384.48 
" style="fill: none; stroke: #000000; stroke-width: 0.8; stroke-linejoin: miter; stroke-linecap: square"/>
   </g>
   <g id="patch_6">
    <path d="M 90 51.84 
L 648 51.84 
" style="fill: none; stroke: #000000; stroke-width: 0.8; stroke-linejoin: miter; stroke-linecap: square"/>
   </g>
   <g id="text_17">
    <!-- Зависимость $K_{min}$ от M (для N=1000) -->
    <g transform="translate(253.32 45.84) scale(0.12 -0.12)">
     <defs>
      <path id="DejaVuSans-417" d="M 1828 4750 
Q 2597 4750 3084 4423 
Q 3572 4097 3572 3541 
Q 3572 3153 3350 2886 
Q 3128 2619 2719 2516 
Q 3172 2419 3426 2112 
Q 3681 1806 3681 1356 
Q 3681 638 3126 273 
Q 2572 -91 1828 -91 
Q 1447 -91 1003 12 
Q 559 116 422 203 
L 422 853 
Q 900 575 1164 508 
Q 1428 441 1816 441 
Q 2403 441 2728 666 
Q 3053 891 3053 1356 
Q 3053 1769 2764 2001 
Q 2475 2234 1866 2234 
L 1228 2234 
L 1228 2753 
L 1891 2753 
Q 2450 2753 2697 2939 
Q 2944 3125 2944 3475 
Q 2944 3834 2689 4026 
Q 2434 4219 1816 4219 
Q 1397 4219 1253 4181 
Q 1109 4144 469 3903 
L 469 4519 
Q 822 4644 1190 4697 
Q 1559 4750 1828 4750 
z
" transform="scale(0.015625)"/>
      <path id="DejaVuSans-430" d="M 2194 1759 
Q 1497 1759 1228 1600 
Q 959 1441 959 1056 
Q 959 750 1161 570 
Q 1363 391 1709 391 
Q 2188 391 2477 730 
Q 2766 1069 2766 1631 
L 2766 1759 
L 2194 1759 
z
M 3341 1997 
L 3341 0 
L 2766 0 
L 2766 531 
Q 2569 213 2275 61 
Q 1981 -91 1556 -91 
Q 1019 -91 701 211 
Q 384 513 384 1019 
Q 384 1609 779 1909 
Q 1175 2209 1959 2209 
L 2766 2209 
L 2766 2266 
Q 2766 2663 2505 2880 
Q 2244 3097 1772 3097 
Q 1472 3097 1187 3025 
Q 903 2953 641 2809 
L 641 3341 
Q 956 3463 1253 3523 
Q 1550 3584 1831 3584 
Q 2591 3584 2966 3190 
Q 3341 2797 3341 1997 
z
" transform="scale(0.015625)"/>
      <path id="DejaVuSans-432" d="M 1156 1613 
L 1156 459 
L 1975 459 
Q 2369 459 2575 607 
Q 2781 756 2781 1038 
Q 2781 1319 2575 1466 
Q 2369 1613 1975 1613 
L 1156 1613 
z
M 1156 3041 
L 1156 2072 
L 1913 2072 
Q 2238 2072 2444 2201 
Q 2650 2331 2650 2563 
Q 2650 2794 2444 2917 
Q 2238 3041 1913 3041 
L 1156 3041 
z
M 581 3500 
L 1950 3500 
Q 2566 3500 2897 3275 
Q 3228 3050 3228 2634 
Q 3228 2313 3059 2123 
Q 2891 1934 2559 1888 
Q 2956 1813 3175 1575 
Q 3394 1338 3394 981 
Q 3394 513 3033 256 
Q 2672 0 2003 0 
L 581 0 
L 581 3500 
z
" transform="scale(0.015625)"/>
      <path id="DejaVuSans-438" d="M 3578 3500 
L 3578 0 
L 3006 0 
L 3006 2809 
L 1319 0 
L 581 0 
L 581 3500 
L 1153 3500 
L 1153 697 
L 2838 3500 
L 3578 3500 
z
" transform="scale(0.015625)"/>
      <path id="DejaVuSans-441" d="M 3122 3366 
L 3122 2828 
Q 2878 2963 2633 3030 
Q 2388 3097 2138 3097 
Q 1578 3097 1268 2742 
Q 959 2388 959 1747 
Q 959 1106 1268 751 
Q 1578 397 2138 397 
Q 2388 397 2633 464 
Q 2878 531 3122 666 
L 3122 134 
Q 2881 22 2623 -34 
Q 2366 -91 2075 -91 
Q 1284 -91 818 406 
Q 353 903 353 1747 
Q 353 2603 823 3093 
Q 1294 3584 2113 3584 
Q 2378 3584 2631 3529 
Q 2884 3475 3122 3366 
z
" transform="scale(0.015625)"/>
      <path id="DejaVuSans-43c" d="M 581 3500 
L 1422 3500 
L 2416 1156 
L 3413 3500 
L 4247 3500 
L 4247 0 
L 3669 0 
L 3669 2950 
L 2703 672 
L 2128 672 
L 1159 2950 
L 1159 0 
L 581 0 
L 581 3500 
z
" transform="scale(0.015625)"/>
      <path id="DejaVuSans-43e" d="M 1959 3097 
Q 1497 3097 1228 2736 
Q 959 2375 959 1747 
Q 959 1119 1226 758 
Q 1494 397 1959 397 
Q 2419 397 2687 759 
Q 2956 1122 2956 1747 
Q 2956 2369 2687 2733 
Q 2419 3097 1959 3097 
z
M 1959 3584 
Q 2709 3584 3137 3096 
Q 3566 2609 3566 1747 
Q 3566 888 3137 398 
Q 2709 -91 1959 -91 
Q 1206 -91 779 398 
Q 353 888 353 1747 
Q 353 2609 779 3096 
Q 1206 3584 1959 3584 
z
" transform="scale(0.015625)"/>
      <path id="DejaVuSans-442" d="M 188 3500 
L 3541 3500 
L 3541 3041 
L 2147 3041 
L 2147 0 
L 1581 0 
L 1581 3041 
L 188 3041 
L 188 3500 
z
" transform="scale(0.015625)"/>
      <path id="DejaVuSans-44c" d="M 2781 1038 
Q 2781 1319 2576 1466 
Q 2372 1613 1978 1613 
L 1159 1613 
L 1159 459 
L 1978 459 
Q 2372 459 2576 607 
Q 2781 756 2781 1038 
z
M 581 3500 
L 1159 3500 
L 1159 2072 
L 2003 2072 
Q 2672 2072 3033 1817 
Q 3394 1563 3394 1038 
Q 3394 513 3033 256 
Q 2672 0 2003 0 
L 581 0 
L 581 3500 
z
" transform="scale(0.015625)"/>
      <path id="DejaVuSans-20" transform="scale(0.015625)"/>
      <path id="DejaVuSans-28" d="M 1984 4856 
Q 1566 4138 1362 3434 
Q 1159 2731 1159 2009 
Q 1159 1288 1364 580 
Q 1569 -128 1984 -844 
L 1484 -844 
Q 1016 -109 783 600 
Q 550 1309 550 2009 
Q 550 2706 781 3412 
Q 1013 4119 1484 4856 
L 1984 4856 
z
" transform="scale(0.015625)"/>
      <path id="DejaVuSans-434" d="M 1384 459 
L 3053 459 
L 3053 3041 
L 1844 3041 
L 1844 2603 
Q 1844 1316 1475 628 
L 1384 459 
z
M 550 459 
Q 834 584 959 850 
Q 1266 1509 1266 2838 
L 1266 3500 
L 3631 3500 
L 3631 459 
L 4091 459 
L 4091 -884 
L 3631 -884 
L 3631 0 
L 794 0 
L 794 -884 
L 334 -884 
L 334 459 
L 550 459 
z
" transform="scale(0.015625)"/>
      <path id="DejaVuSans-43b" d="M 238 0 
L 238 478 
Q 806 566 981 959 
Q 1194 1513 1194 2928 
L 1194 3500 
L 3559 3500 
L 3559 0 
L 2984 0 
L 2984 3041 
L 1769 3041 
L 1769 2694 
Q 1769 1344 1494 738 
Q 1200 91 238 0 
z
" transform="scale(0.015625)"/>
      <path id="DejaVuSans-44f" d="M 1181 2491 
Q 1181 2231 1381 2084 
Q 1581 1938 1953 1938 
L 2728 1938 
L 2728 3041 
L 1953 3041 
Q 1581 3041 1381 2897 
Q 1181 2753 1181 2491 
z
M 363 0 
L 1431 1534 
Q 1069 1616 828 1830 
Q 588 2044 588 2491 
Q 588 2997 923 3248 
Q 1259 3500 1938 3500 
L 3306 3500 
L 3306 0 
L 2728 0 
L 2728 1478 
L 2013 1478 
L 981 0 
L 363 0 
z
" transform="scale(0.015625)"/>
      <path id="DejaVuSans-4e" d="M 628 4666 
L 1478 4666 
L 3547 763 
L 3547 4666 
L 4159 4666 
L 4159 0 
L 3309 0 
L 1241 3903 
L 1241 0 
L 628 0 
L 628 4666 
z
" transform="scale(0.015625)"/>
      <path id="DejaVuSans-3d" d="M 678 2906 
L 4684 2906 
L 4684 2381 
L 678 2381 
L 678 2906 
z
M 678 1631 
L 4684 1631 
L 4684 1100 
L 678 1100 
L 678 1631 
z
" transform="scale(0.015625)"/>
      <path id="DejaVuSans-29" d="M 513 4856 
L 1013 4856 
Q 1481 4119 1714 3412 
Q 1947 2706 1947 2009 
Q 1947 1309 1714 600 
Q 1481 -109 1013 -844 
L 513 -844 
Q 928 -128 1133 580 
Q 1338 1288 1338 2009 
Q 1338 2731 1133 3434 
Q 928 4138 513 4856 
z
" transform="scale(0.015625)"/>
     </defs>
     <use xlink:href="#DejaVuSans-417" transform="translate(0 0.125)"/>
     <use xlink:href="#DejaVuSans-430" transform="translate(64.111328 0.125)"/>
     <use xlink:href="#DejaVuSans-432" transform="translate(125.390625 0.125)"/>
     <use xlink:href="#DejaVuSans-438" transform="translate(184.326172 0.125)"/>
     <use xlink:href="#DejaVuSans-441" transform="translate(249.316406 0.125)"/>
     <use xlink:href="#DejaVuSans-438" transform="translate(304.296875 0.125)"/>
     <use xlink:href="#DejaVuSans-43c" transform="translate(369.287109 0.125)"/>
     <use xlink:href="#DejaVuSans-43e" transform="translate(444.726562 0.125)"/>
     <use xlink:href="#DejaVuSans-441" transform="translate(505.908203 0.125)"/>
     <use xlink:href="#DejaVuSans-442" transform="translate(560.888672 0.125)"/>
     <use xlink:href="#DejaVuSans-44c" transform="translate(619.140625 0.125)"/>
     <use xlink:href="#DejaVuSans-20" transform="translate(678.076172 0.125)"/>
     <use xlink:href="#DejaVuSans-Oblique-4b" transform="translate(709.863281 0.125)"/>
     <use xlink:href="#DejaVuSans-Oblique-6d" transform="translate(775.439453 -16.28125) scale(0.7)"/>
     <use xlink:href="#DejaVuSans-Oblique-69" transform="translate(843.62793 -16.28125) scale(0.7)"/>
     <use xlink:href="#DejaVuSans-Oblique-6e" transform="translate(863.076172 -16.28125) scale(0.7)"/>
     <use xlink:href="#DejaVuSans-20" transform="translate(910.175781 0.125)"/>
     <use xlink:href="#DejaVuSans-43e" transform="translate(941.962891 0.125)"/>
     <use xlink:href="#DejaVuSans-442" transform="translate(1003.144531 0.125)"/>
     <use xlink:href="#DejaVuSans-20" transform="translate(1061.396484 0.125)"/>
     <use xlink:href="#DejaVuSans-4d" transform="translate(1093.183594 0.125)"/>
     <use xlink:href="#DejaVuSans-20" transform="translate(1179.462891 0.125)"/>
     <use xlink:href="#DejaVuSans-28" transform="translate(1211.25 0.125)"/>
     <use xlink:href="#DejaVuSans-434" transform="translate(1250.263672 0.125)"/>
     <use xlink:href="#DejaVuSans-43b" transform="translate(1319.404297 0.125)"/>
     <use xlink:href="#DejaVuSans-44f" transform="translate(1383.320312 0.125)"/>
     <use xlink:href="#DejaVuSans-20" transform="translate(1443.476562 0.125)"/>
     <use xlink:href="#DejaVuSans-4e" transform="translate(1475.263672 0.125)"/>
     <use xlink:href="#DejaVuSans-3d" transform="translate(1550.068359 0.125)"/>
     <use xlink:href="#DejaVuSans-31" transform="translate(1633.857422 0.125)"/>
     <use xlink:href="#DejaVuSans-30" transform="translate(1697.480469 0.125)"/>
     <use xlink:href="#DejaVuSans-30" transform="translate(1761.103516 0.125)"/>
     <use xlink:href="#DejaVuSans-30" transform="translate(1824.726562 0.125)"/>
     <use xlink:href="#DejaVuSans-29" transform="translate(1888.349609 0.125)"/>
    </g>
   </g>
   <g id="legend_1">
    <g id="patch_7">
     <path d="M 386.393594 162.72 
L 643.1 162.72 
Q 644.5 162.72 644.5 161.32 
L 644.5 56.74 
Q 644.5 55.34 643.1 55.34 
L 386.393594 55.34 
Q 384.993594 55.34 384.993594 56.74 
L 384.993594 161.32 
Q 384.993594 162.72 386.393594 162.72 
z
" style="fill: #ffffff; opacity: 0.8; stroke: #cccccc; stroke-linejoin: miter"/>
    </g>
    <g id="line2d_39">
     <path d="M 387.793594 61.039531 
L 394.793594 61.039531 
L 401.793594 61.039531 
" style="fill: none; stroke: #8000ff; stroke-width: 3; stroke-linecap: square"/>
     <g>
      <use xlink:href="#m6a50f63b4c" x="394.793594" y="61.039531" style="fill: #8000ff; stroke: #8000ff"/>
     </g>
    </g>
    <g id="text_18">
     <!-- optimum | METIS -->
     <g transform="translate(407.393594 63.489531) scale(0.07 -0.07)">
      <defs>
       <path id="DejaVuSans-6f" d="M 1959 3097 
Q 1497 3097 1228 2736 
Q 959 2375 959 1747 
Q 959 1119 1226 758 
Q 1494 397 1959 397 
Q 2419 397 2687 759 
Q 2956 1122 2956 1747 
Q 2956 2369 2687 2733 
Q 2419 3097 1959 3097 
z
M 1959 3584 
Q 2709 3584 3137 3096 
Q 3566 2609 3566 1747 
Q 3566 888 3137 398 
Q 2709 -91 1959 -91 
Q 1206 -91 779 398 
Q 353 888 353 1747 
Q 353 2609 779 3096 
Q 1206 3584 1959 3584 
z
" transform="scale(0.015625)"/>
       <path id="DejaVuSans-70" d="M 1159 525 
L 1159 -1331 
L 581 -1331 
L 581 3500 
L 1159 3500 
L 1159 2969 
Q 1341 3281 1617 3432 
Q 1894 3584 2278 3584 
Q 2916 3584 3314 3078 
Q 3713 2572 3713 1747 
Q 3713 922 3314 415 
Q 2916 -91 2278 -91 
Q 1894 -91 1617 61 
Q 1341 213 1159 525 
z
M 3116 1747 
Q 3116 2381 2855 2742 
Q 2594 3103 2138 3103 
Q 1681 3103 1420 2742 
Q 1159 2381 1159 1747 
Q 1159 1113 1420 752 
Q 1681 391 2138 391 
Q 2594 391 2855 752 
Q 3116 1113 3116 1747 
z
" transform="scale(0.015625)"/>
       <path id="DejaVuSans-74" d="M 1172 4494 
L 1172 3500 
L 2356 3500 
L 2356 3053 
L 1172 3053 
L 1172 1153 
Q 1172 725 1289 603 
Q 1406 481 1766 481 
L 2356 481 
L 2356 0 
L 1766 0 
Q 1100 0 847 248 
Q 594 497 594 1153 
L 594 3053 
L 172 3053 
L 172 3500 
L 594 3500 
L 594 4494 
L 1172 4494 
z
" transform="scale(0.015625)"/>
       <path id="DejaVuSans-69" d="M 603 3500 
L 1178 3500 
L 1178 0 
L 603 0 
L 603 3500 
z
M 603 4863 
L 1178 4863 
L 1178 4134 
L 603 4134 
L 603 4863 
z
" transform="scale(0.015625)"/>
       <path id="DejaVuSans-6d" d="M 3328 2828 
Q 3544 3216 3844 3400 
Q 4144 3584 4550 3584 
Q 5097 3584 5394 3201 
Q 5691 2819 5691 2113 
L 5691 0 
L 5113 0 
L 5113 2094 
Q 5113 2597 4934 2840 
Q 4756 3084 4391 3084 
Q 3944 3084 3684 2787 
Q 3425 2491 3425 1978 
L 3425 0 
L 2847 0 
L 2847 2094 
Q 2847 2600 2669 2842 
Q 2491 3084 2119 3084 
Q 1678 3084 1418 2786 
Q 1159 2488 1159 1978 
L 1159 0 
L 581 0 
L 581 3500 
L 1159 3500 
L 1159 2956 
Q 1356 3278 1631 3431 
Q 1906 3584 2284 3584 
Q 2666 3584 2933 3390 
Q 3200 3197 3328 2828 
z
" transform="scale(0.015625)"/>
       <path id="DejaVuSans-75" d="M 544 1381 
L 544 3500 
L 1119 3500 
L 1119 1403 
Q 1119 906 1312 657 
Q 1506 409 1894 409 
Q 2359 409 2629 706 
Q 2900 1003 2900 1516 
L 2900 3500 
L 3475 3500 
L 3475 0 
L 2900 0 
L 2900 538 
Q 2691 219 2414 64 
Q 2138 -91 1772 -91 
Q 1169 -91 856 284 
Q 544 659 544 1381 
z
M 1991 3584 
L 1991 3584 
z
" transform="scale(0.015625)"/>
       <path id="DejaVuSans-7c" d="M 1344 4891 
L 1344 -1509 
L 813 -1509 
L 813 4891 
L 1344 4891 
z
" transform="scale(0.015625)"/>
       <path id="DejaVuSans-45" d="M 628 4666 
L 3578 4666 
L 3578 4134 
L 1259 4134 
L 1259 2753 
L 3481 2753 
L 3481 2222 
L 1259 2222 
L 1259 531 
L 3634 531 
L 3634 0 
L 628 0 
L 628 4666 
z
" transform="scale(0.015625)"/>
       <path id="DejaVuSans-54" d="M -19 4666 
L 3928 4666 
L 3928 4134 
L 2272 4134 
L 2272 0 
L 1638 0 
L 1638 4134 
L -19 4134 
L -19 4666 
z
" transform="scale(0.015625)"/>
       <path id="DejaVuSans-49" d="M 628 4666 
L 1259 4666 
L 1259 0 
L 628 0 
L 628 4666 
z
" transform="scale(0.015625)"/>
       <path id="DejaVuSans-53" d="M 3425 4513 
L 3425 3897 
Q 3066 4069 2747 4153 
Q 2428 4238 2131 4238 
Q 1616 4238 1336 4038 
Q 1056 3838 1056 3469 
Q 1056 3159 1242 3001 
Q 1428 2844 1947 2747 
L 2328 2669 
Q 3034 2534 3370 2195 
Q 3706 1856 3706 1288 
Q 3706 609 3251 259 
Q 2797 -91 1919 -91 
Q 1588 -91 1214 -16 
Q 841 59 441 206 
L 441 856 
Q 825 641 1194 531 
Q 1563 422 1919 422 
Q 2459 422 2753 634 
Q 3047 847 3047 1241 
Q 3047 1584 2836 1778 
Q 2625 1972 2144 2069 
L 1759 2144 
Q 1053 2284 737 2584 
Q 422 2884 422 3419 
Q 422 4038 858 4394 
Q 1294 4750 2059 4750 
Q 2388 4750 2728 4690 
Q 3069 4631 3425 4513 
z
" transform="scale(0.015625)"/>
      </defs>
      <use xlink:href="#DejaVuSans-6f"/>
      <use xlink:href="#DejaVuSans-70" x="61.181641"/>
      <use xlink:href="#DejaVuSans-74" x="124.658203"/>
      <use xlink:href="#DejaVuSans-69" x="163.867188"/>
      <use xlink:href="#DejaVuSans-6d" x="191.650391"/>
      <use xlink:href="#DejaVuSans-75" x="289.0625"/>
      <use xlink:href="#DejaVuSans-6d" x="352.441406"/>
      <use xlink:href="#DejaVuSans-20" x="449.853516"/>
      <use xlink:href="#DejaVuSans-7c" x="481.640625"/>
      <use xlink:href="#DejaVuSans-20" x="515.332031"/>
      <use xlink:href="#DejaVuSans-4d" x="547.119141"/>
      <use xlink:href="#DejaVuSans-45" x="633.398438"/>
      <use xlink:href="#DejaVuSans-54" x="696.582031"/>
      <use xlink:href="#DejaVuSans-49" x="757.666016"/>
      <use xlink:href="#DejaVuSans-53" x="787.158203"/>
     </g>
    </g>
    <g id="line2d_40">
     <path d="M 387.793594 71.539531 
L 394.793594 71.539531 
L 401.793594 71.539531 
" style="fill: none; stroke: #4856fb; stroke-width: 3; stroke-linecap: square"/>
     <g>
      <use xlink:href="#m62456bccf1" x="394.793594" y="71.539531" style="fill: #4856fb; stroke: #4856fb"/>
     </g>
    </g>
    <g id="text_19">
     <!-- optimum | CTCEHC (weight = bw) -->
     <g transform="translate(407.393594 73.989531) scale(0.07 -0.07)">
      <defs>
       <path id="DejaVuSans-43" d="M 4122 4306 
L 4122 3641 
Q 3803 3938 3442 4084 
Q 3081 4231 2675 4231 
Q 1875 4231 1450 3742 
Q 1025 3253 1025 2328 
Q 1025 1406 1450 917 
Q 1875 428 2675 428 
Q 3081 428 3442 575 
Q 3803 722 4122 1019 
L 4122 359 
Q 3791 134 3420 21 
Q 3050 -91 2638 -91 
Q 1578 -91 968 557 
Q 359 1206 359 2328 
Q 359 3453 968 4101 
Q 1578 4750 2638 4750 
Q 3056 4750 3426 4639 
Q 3797 4528 4122 4306 
z
" transform="scale(0.015625)"/>
       <path id="DejaVuSans-48" d="M 628 4666 
L 1259 4666 
L 1259 2753 
L 3553 2753 
L 3553 4666 
L 4184 4666 
L 4184 0 
L 3553 0 
L 3553 2222 
L 1259 2222 
L 1259 0 
L 628 0 
L 628 4666 
z
" transform="scale(0.015625)"/>
       <path id="DejaVuSans-77" d="M 269 3500 
L 844 3500 
L 1563 769 
L 2278 3500 
L 2956 3500 
L 3675 769 
L 4391 3500 
L 4966 3500 
L 4050 0 
L 3372 0 
L 2619 2869 
L 1863 0 
L 1184 0 
L 269 3500 
z
" transform="scale(0.015625)"/>
       <path id="DejaVuSans-65" d="M 3597 1894 
L 3597 1613 
L 953 1613 
Q 991 1019 1311 708 
Q 1631 397 2203 397 
Q 2534 397 2845 478 
Q 3156 559 3463 722 
L 3463 178 
Q 3153 47 2828 -22 
Q 2503 -91 2169 -91 
Q 1331 -91 842 396 
Q 353 884 353 1716 
Q 353 2575 817 3079 
Q 1281 3584 2069 3584 
Q 2775 3584 3186 3129 
Q 3597 2675 3597 1894 
z
M 3022 2063 
Q 3016 2534 2758 2815 
Q 2500 3097 2075 3097 
Q 1594 3097 1305 2825 
Q 1016 2553 972 2059 
L 3022 2063 
z
" transform="scale(0.015625)"/>
       <path id="DejaVuSans-67" d="M 2906 1791 
Q 2906 2416 2648 2759 
Q 2391 3103 1925 3103 
Q 1463 3103 1205 2759 
Q 947 2416 947 1791 
Q 947 1169 1205 825 
Q 1463 481 1925 481 
Q 2391 481 2648 825 
Q 2906 1169 2906 1791 
z
M 3481 434 
Q 3481 -459 3084 -895 
Q 2688 -1331 1869 -1331 
Q 1566 -1331 1297 -1286 
Q 1028 -1241 775 -1147 
L 775 -588 
Q 1028 -725 1275 -790 
Q 1522 -856 1778 -856 
Q 2344 -856 2625 -561 
Q 2906 -266 2906 331 
L 2906 616 
Q 2728 306 2450 153 
Q 2172 0 1784 0 
Q 1141 0 747 490 
Q 353 981 353 1791 
Q 353 2603 747 3093 
Q 1141 3584 1784 3584 
Q 2172 3584 2450 3431 
Q 2728 3278 2906 2969 
L 2906 3500 
L 3481 3500 
L 3481 434 
z
" transform="scale(0.015625)"/>
       <path id="DejaVuSans-68" d="M 3513 2113 
L 3513 0 
L 2938 0 
L 2938 2094 
Q 2938 2591 2744 2837 
Q 2550 3084 2163 3084 
Q 1697 3084 1428 2787 
Q 1159 2491 1159 1978 
L 1159 0 
L 581 0 
L 581 4863 
L 1159 4863 
L 1159 2956 
Q 1366 3272 1645 3428 
Q 1925 3584 2291 3584 
Q 2894 3584 3203 3211 
Q 3513 2838 3513 2113 
z
" transform="scale(0.015625)"/>
       <path id="DejaVuSans-62" d="M 3116 1747 
Q 3116 2381 2855 2742 
Q 2594 3103 2138 3103 
Q 1681 3103 1420 2742 
Q 1159 2381 1159 1747 
Q 1159 1113 1420 752 
Q 1681 391 2138 391 
Q 2594 391 2855 752 
Q 3116 1113 3116 1747 
z
M 1159 2969 
Q 1341 3281 1617 3432 
Q 1894 3584 2278 3584 
Q 2916 3584 3314 3078 
Q 3713 2572 3713 1747 
Q 3713 922 3314 415 
Q 2916 -91 2278 -91 
Q 1894 -91 1617 61 
Q 1341 213 1159 525 
L 1159 0 
L 581 0 
L 581 4863 
L 1159 4863 
L 1159 2969 
z
" transform="scale(0.015625)"/>
      </defs>
      <use xlink:href="#DejaVuSans-6f"/>
      <use xlink:href="#DejaVuSans-70" x="61.181641"/>
      <use xlink:href="#DejaVuSans-74" x="124.658203"/>
      <use xlink:href="#DejaVuSans-69" x="163.867188"/>
      <use xlink:href="#DejaVuSans-6d" x="191.650391"/>
      <use xlink:href="#DejaVuSans-75" x="289.0625"/>
      <use xlink:href="#DejaVuSans-6d" x="352.441406"/>
      <use xlink:href="#DejaVuSans-20" x="449.853516"/>
      <use xlink:href="#DejaVuSans-7c" x="481.640625"/>
      <use xlink:href="#DejaVuSans-20" x="515.332031"/>
      <use xlink:href="#DejaVuSans-43" x="547.119141"/>
      <use xlink:href="#DejaVuSans-54" x="616.943359"/>
      <use xlink:href="#DejaVuSans-43" x="672.152344"/>
      <use xlink:href="#DejaVuSans-45" x="741.976562"/>
      <use xlink:href="#DejaVuSans-48" x="805.160156"/>
      <use xlink:href="#DejaVuSans-43" x="880.355469"/>
      <use xlink:href="#DejaVuSans-20" x="950.179688"/>
      <use xlink:href="#DejaVuSans-28" x="981.966797"/>
      <use xlink:href="#DejaVuSans-77" x="1020.980469"/>
      <use xlink:href="#DejaVuSans-65" x="1102.767578"/>
      <use xlink:href="#DejaVuSans-69" x="1164.291016"/>
      <use xlink:href="#DejaVuSans-67" x="1192.074219"/>
      <use xlink:href="#DejaVuSans-68" x="1255.550781"/>
      <use xlink:href="#DejaVuSans-74" x="1318.929688"/>
      <use xlink:href="#DejaVuSans-20" x="1358.138672"/>
      <use xlink:href="#DejaVuSans-3d" x="1389.925781"/>
      <use xlink:href="#DejaVuSans-20" x="1473.714844"/>
      <use xlink:href="#DejaVuSans-62" x="1505.501953"/>
      <use xlink:href="#DejaVuSans-77" x="1568.978516"/>
      <use xlink:href="#DejaVuSans-29" x="1650.765625"/>
     </g>
    </g>
    <g id="line2d_41">
     <path d="M 387.793594 82.039531 
L 394.793594 82.039531 
L 401.793594 82.039531 
" style="fill: none; stroke: #10a2f0; stroke-width: 1.5; stroke-linecap: square"/>
     <g>
      <use xlink:href="#m89e25fe28d" x="394.793594" y="82.039531" style="fill: #10a2f0; stroke: #10a2f0"/>
     </g>
    </g>
    <g id="text_20">
     <!-- METIS | MAGNA++ | fitness_function_degree, PMX -->
     <g transform="translate(407.393594 84.489531) scale(0.07 -0.07)">
      <defs>
       <path id="DejaVuSans-41" d="M 2188 4044 
L 1331 1722 
L 3047 1722 
L 2188 4044 
z
M 1831 4666 
L 2547 4666 
L 4325 0 
L 3669 0 
L 3244 1197 
L 1141 1197 
L 716 0 
L 50 0 
L 1831 4666 
z
" transform="scale(0.015625)"/>
       <path id="DejaVuSans-47" d="M 3809 666 
L 3809 1919 
L 2778 1919 
L 2778 2438 
L 4434 2438 
L 4434 434 
Q 4069 175 3628 42 
Q 3188 -91 2688 -91 
Q 1594 -91 976 548 
Q 359 1188 359 2328 
Q 359 3472 976 4111 
Q 1594 4750 2688 4750 
Q 3144 4750 3555 4637 
Q 3966 4525 4313 4306 
L 4313 3634 
Q 3963 3931 3569 4081 
Q 3175 4231 2741 4231 
Q 1884 4231 1454 3753 
Q 1025 3275 1025 2328 
Q 1025 1384 1454 906 
Q 1884 428 2741 428 
Q 3075 428 3337 486 
Q 3600 544 3809 666 
z
" transform="scale(0.015625)"/>
       <path id="DejaVuSans-2b" d="M 2944 4013 
L 2944 2272 
L 4684 2272 
L 4684 1741 
L 2944 1741 
L 2944 0 
L 2419 0 
L 2419 1741 
L 678 1741 
L 678 2272 
L 2419 2272 
L 2419 4013 
L 2944 4013 
z
" transform="scale(0.015625)"/>
       <path id="DejaVuSans-66" d="M 2375 4863 
L 2375 4384 
L 1825 4384 
Q 1516 4384 1395 4259 
Q 1275 4134 1275 3809 
L 1275 3500 
L 2222 3500 
L 2222 3053 
L 1275 3053 
L 1275 0 
L 697 0 
L 697 3053 
L 147 3053 
L 147 3500 
L 697 3500 
L 697 3744 
Q 697 4328 969 4595 
Q 1241 4863 1831 4863 
L 2375 4863 
z
" transform="scale(0.015625)"/>
       <path id="DejaVuSans-6e" d="M 3513 2113 
L 3513 0 
L 2938 0 
L 2938 2094 
Q 2938 2591 2744 2837 
Q 2550 3084 2163 3084 
Q 1697 3084 1428 2787 
Q 1159 2491 1159 1978 
L 1159 0 
L 581 0 
L 581 3500 
L 1159 3500 
L 1159 2956 
Q 1366 3272 1645 3428 
Q 1925 3584 2291 3584 
Q 2894 3584 3203 3211 
Q 3513 2838 3513 2113 
z
" transform="scale(0.015625)"/>
       <path id="DejaVuSans-73" d="M 2834 3397 
L 2834 2853 
Q 2591 2978 2328 3040 
Q 2066 3103 1784 3103 
Q 1356 3103 1142 2972 
Q 928 2841 928 2578 
Q 928 2378 1081 2264 
Q 1234 2150 1697 2047 
L 1894 2003 
Q 2506 1872 2764 1633 
Q 3022 1394 3022 966 
Q 3022 478 2636 193 
Q 2250 -91 1575 -91 
Q 1294 -91 989 -36 
Q 684 19 347 128 
L 347 722 
Q 666 556 975 473 
Q 1284 391 1588 391 
Q 1994 391 2212 530 
Q 2431 669 2431 922 
Q 2431 1156 2273 1281 
Q 2116 1406 1581 1522 
L 1381 1569 
Q 847 1681 609 1914 
Q 372 2147 372 2553 
Q 372 3047 722 3315 
Q 1072 3584 1716 3584 
Q 2034 3584 2315 3537 
Q 2597 3491 2834 3397 
z
" transform="scale(0.015625)"/>
       <path id="DejaVuSans-5f" d="M 3263 -1063 
L 3263 -1509 
L -63 -1509 
L -63 -1063 
L 3263 -1063 
z
" transform="scale(0.015625)"/>
       <path id="DejaVuSans-63" d="M 3122 3366 
L 3122 2828 
Q 2878 2963 2633 3030 
Q 2388 3097 2138 3097 
Q 1578 3097 1268 2742 
Q 959 2388 959 1747 
Q 959 1106 1268 751 
Q 1578 397 2138 397 
Q 2388 397 2633 464 
Q 2878 531 3122 666 
L 3122 134 
Q 2881 22 2623 -34 
Q 2366 -91 2075 -91 
Q 1284 -91 818 406 
Q 353 903 353 1747 
Q 353 2603 823 3093 
Q 1294 3584 2113 3584 
Q 2378 3584 2631 3529 
Q 2884 3475 3122 3366 
z
" transform="scale(0.015625)"/>
       <path id="DejaVuSans-64" d="M 2906 2969 
L 2906 4863 
L 3481 4863 
L 3481 0 
L 2906 0 
L 2906 525 
Q 2725 213 2448 61 
Q 2172 -91 1784 -91 
Q 1150 -91 751 415 
Q 353 922 353 1747 
Q 353 2572 751 3078 
Q 1150 3584 1784 3584 
Q 2172 3584 2448 3432 
Q 2725 3281 2906 2969 
z
M 947 1747 
Q 947 1113 1208 752 
Q 1469 391 1925 391 
Q 2381 391 2643 752 
Q 2906 1113 2906 1747 
Q 2906 2381 2643 2742 
Q 2381 3103 1925 3103 
Q 1469 3103 1208 2742 
Q 947 2381 947 1747 
z
" transform="scale(0.015625)"/>
       <path id="DejaVuSans-72" d="M 2631 2963 
Q 2534 3019 2420 3045 
Q 2306 3072 2169 3072 
Q 1681 3072 1420 2755 
Q 1159 2438 1159 1844 
L 1159 0 
L 581 0 
L 581 3500 
L 1159 3500 
L 1159 2956 
Q 1341 3275 1631 3429 
Q 1922 3584 2338 3584 
Q 2397 3584 2469 3576 
Q 2541 3569 2628 3553 
L 2631 2963 
z
" transform="scale(0.015625)"/>
       <path id="DejaVuSans-2c" d="M 750 794 
L 1409 794 
L 1409 256 
L 897 -744 
L 494 -744 
L 750 256 
L 750 794 
z
" transform="scale(0.015625)"/>
       <path id="DejaVuSans-50" d="M 1259 4147 
L 1259 2394 
L 2053 2394 
Q 2494 2394 2734 2622 
Q 2975 2850 2975 3272 
Q 2975 3691 2734 3919 
Q 2494 4147 2053 4147 
L 1259 4147 
z
M 628 4666 
L 2053 4666 
Q 2838 4666 3239 4311 
Q 3641 3956 3641 3272 
Q 3641 2581 3239 2228 
Q 2838 1875 2053 1875 
L 1259 1875 
L 1259 0 
L 628 0 
L 628 4666 
z
" transform="scale(0.015625)"/>
       <path id="DejaVuSans-58" d="M 403 4666 
L 1081 4666 
L 2241 2931 
L 3406 4666 
L 4084 4666 
L 2584 2425 
L 4184 0 
L 3506 0 
L 2194 1984 
L 872 0 
L 191 0 
L 1856 2491 
L 403 4666 
z
" transform="scale(0.015625)"/>
      </defs>
      <use xlink:href="#DejaVuSans-4d"/>
      <use xlink:href="#DejaVuSans-45" x="86.279297"/>
      <use xlink:href="#DejaVuSans-54" x="149.462891"/>
      <use xlink:href="#DejaVuSans-49" x="210.546875"/>
      <use xlink:href="#DejaVuSans-53" x="240.039062"/>
      <use xlink:href="#DejaVuSans-20" x="303.515625"/>
      <use xlink:href="#DejaVuSans-7c" x="335.302734"/>
      <use xlink:href="#DejaVuSans-20" x="368.994141"/>
      <use xlink:href="#DejaVuSans-4d" x="400.78125"/>
      <use xlink:href="#DejaVuSans-41" x="487.060547"/>
      <use xlink:href="#DejaVuSans-47" x="553.71875"/>
      <use xlink:href="#DejaVuSans-4e" x="631.208984"/>
      <use xlink:href="#DejaVuSans-41" x="706.013672"/>
      <use xlink:href="#DejaVuSans-2b" x="774.421875"/>
      <use xlink:href="#DejaVuSans-2b" x="858.210938"/>
      <use xlink:href="#DejaVuSans-20" x="942"/>
      <use xlink:href="#DejaVuSans-7c" x="973.787109"/>
      <use xlink:href="#DejaVuSans-20" x="1007.478516"/>
      <use xlink:href="#DejaVuSans-66" x="1039.265625"/>
      <use xlink:href="#DejaVuSans-69" x="1074.470703"/>
      <use xlink:href="#DejaVuSans-74" x="1102.253906"/>
      <use xlink:href="#DejaVuSans-6e" x="1141.462891"/>
      <use xlink:href="#DejaVuSans-65" x="1204.841797"/>
      <use xlink:href="#DejaVuSans-73" x="1266.365234"/>
      <use xlink:href="#DejaVuSans-73" x="1318.464844"/>
      <use xlink:href="#DejaVuSans-5f" x="1370.564453"/>
      <use xlink:href="#DejaVuSans-66" x="1420.564453"/>
      <use xlink:href="#DejaVuSans-75" x="1455.769531"/>
      <use xlink:href="#DejaVuSans-6e" x="1519.148438"/>
      <use xlink:href="#DejaVuSans-63" x="1582.527344"/>
      <use xlink:href="#DejaVuSans-74" x="1637.507812"/>
      <use xlink:href="#DejaVuSans-69" x="1676.716797"/>
      <use xlink:href="#DejaVuSans-6f" x="1704.5"/>
      <use xlink:href="#DejaVuSans-6e" x="1765.681641"/>
      <use xlink:href="#DejaVuSans-5f" x="1829.060547"/>
      <use xlink:href="#DejaVuSans-64" x="1879.060547"/>
      <use xlink:href="#DejaVuSans-65" x="1942.537109"/>
      <use xlink:href="#DejaVuSans-67" x="2004.060547"/>
      <use xlink:href="#DejaVuSans-72" x="2067.537109"/>
      <use xlink:href="#DejaVuSans-65" x="2106.400391"/>
      <use xlink:href="#DejaVuSans-65" x="2167.923828"/>
      <use xlink:href="#DejaVuSans-2c" x="2229.447266"/>
      <use xlink:href="#DejaVuSans-20" x="2261.234375"/>
      <use xlink:href="#DejaVuSans-50" x="2293.021484"/>
      <use xlink:href="#DejaVuSans-4d" x="2353.324219"/>
      <use xlink:href="#DejaVuSans-58" x="2439.603516"/>
     </g>
    </g>
    <g id="line2d_42">
     <path d="M 387.793594 92.539531 
L 394.793594 92.539531 
L 401.793594 92.539531 
" style="fill: none; stroke: #2adddd; stroke-width: 1.5; stroke-linecap: square"/>
     <g>
      <use xlink:href="#m1bfd43f09c" x="394.793594" y="92.539531" style="fill: #2adddd; stroke: #2adddd"/>
     </g>
    </g>
    <g id="text_21">
     <!-- METIS | MAGNA++ | fitness_function_k_min, PMX -->
     <g transform="translate(407.393594 94.989531) scale(0.07 -0.07)">
      <defs>
       <path id="DejaVuSans-6b" d="M 581 4863 
L 1159 4863 
L 1159 1991 
L 2875 3500 
L 3609 3500 
L 1753 1863 
L 3688 0 
L 2938 0 
L 1159 1709 
L 1159 0 
L 581 0 
L 581 4863 
z
" transform="scale(0.015625)"/>
      </defs>
      <use xlink:href="#DejaVuSans-4d"/>
      <use xlink:href="#DejaVuSans-45" x="86.279297"/>
      <use xlink:href="#DejaVuSans-54" x="149.462891"/>
      <use xlink:href="#DejaVuSans-49" x="210.546875"/>
      <use xlink:href="#DejaVuSans-53" x="240.039062"/>
      <use xlink:href="#DejaVuSans-20" x="303.515625"/>
      <use xlink:href="#DejaVuSans-7c" x="335.302734"/>
      <use xlink:href="#DejaVuSans-20" x="368.994141"/>
      <use xlink:href="#DejaVuSans-4d" x="400.78125"/>
      <use xlink:href="#DejaVuSans-41" x="487.060547"/>
      <use xlink:href="#DejaVuSans-47" x="553.71875"/>
      <use xlink:href="#DejaVuSans-4e" x="631.208984"/>
      <use xlink:href="#DejaVuSans-41" x="706.013672"/>
      <use xlink:href="#DejaVuSans-2b" x="774.421875"/>
      <use xlink:href="#DejaVuSans-2b" x="858.210938"/>
      <use xlink:href="#DejaVuSans-20" x="942"/>
      <use xlink:href="#DejaVuSans-7c" x="973.787109"/>
      <use xlink:href="#DejaVuSans-20" x="1007.478516"/>
      <use xlink:href="#DejaVuSans-66" x="1039.265625"/>
      <use xlink:href="#DejaVuSans-69" x="1074.470703"/>
      <use xlink:href="#DejaVuSans-74" x="1102.253906"/>
      <use xlink:href="#DejaVuSans-6e" x="1141.462891"/>
      <use xlink:href="#DejaVuSans-65" x="1204.841797"/>
      <use xlink:href="#DejaVuSans-73" x="1266.365234"/>
      <use xlink:href="#DejaVuSans-73" x="1318.464844"/>
      <use xlink:href="#DejaVuSans-5f" x="1370.564453"/>
      <use xlink:href="#DejaVuSans-66" x="1420.564453"/>
      <use xlink:href="#DejaVuSans-75" x="1455.769531"/>
      <use xlink:href="#DejaVuSans-6e" x="1519.148438"/>
      <use xlink:href="#DejaVuSans-63" x="1582.527344"/>
      <use xlink:href="#DejaVuSans-74" x="1637.507812"/>
      <use xlink:href="#DejaVuSans-69" x="1676.716797"/>
      <use xlink:href="#DejaVuSans-6f" x="1704.5"/>
      <use xlink:href="#DejaVuSans-6e" x="1765.681641"/>
      <use xlink:href="#DejaVuSans-5f" x="1829.060547"/>
      <use xlink:href="#DejaVuSans-6b" x="1879.060547"/>
      <use xlink:href="#DejaVuSans-5f" x="1936.970703"/>
      <use xlink:href="#DejaVuSans-6d" x="1986.970703"/>
      <use xlink:href="#DejaVuSans-69" x="2084.382812"/>
      <use xlink:href="#DejaVuSans-6e" x="2112.166016"/>
      <use xlink:href="#DejaVuSans-2c" x="2175.544922"/>
      <use xlink:href="#DejaVuSans-20" x="2207.332031"/>
      <use xlink:href="#DejaVuSans-50" x="2239.119141"/>
      <use xlink:href="#DejaVuSans-4d" x="2299.421875"/>
      <use xlink:href="#DejaVuSans-58" x="2385.701172"/>
     </g>
    </g>
    <g id="line2d_43">
     <path d="M 387.793594 103.08 
L 394.793594 103.08 
L 401.793594 103.08 
" style="fill: none; stroke: #62fbc4; stroke-width: 1.5; stroke-linecap: square"/>
     <g>
      <use xlink:href="#m7331a42224" x="394.793594" y="103.08" style="fill: #62fbc4; stroke: #62fbc4"/>
     </g>
    </g>
    <g id="text_22">
     <!-- METIS | ISORANK | $\alpha$ = 0.05 -->
     <g transform="translate(407.393594 105.53) scale(0.07 -0.07)">
      <defs>
       <path id="DejaVuSans-4f" d="M 2522 4238 
Q 1834 4238 1429 3725 
Q 1025 3213 1025 2328 
Q 1025 1447 1429 934 
Q 1834 422 2522 422 
Q 3209 422 3611 934 
Q 4013 1447 4013 2328 
Q 4013 3213 3611 3725 
Q 3209 4238 2522 4238 
z
M 2522 4750 
Q 3503 4750 4090 4092 
Q 4678 3434 4678 2328 
Q 4678 1225 4090 567 
Q 3503 -91 2522 -91 
Q 1538 -91 948 565 
Q 359 1222 359 2328 
Q 359 3434 948 4092 
Q 1538 4750 2522 4750 
z
" transform="scale(0.015625)"/>
       <path id="DejaVuSans-52" d="M 2841 2188 
Q 3044 2119 3236 1894 
Q 3428 1669 3622 1275 
L 4263 0 
L 3584 0 
L 2988 1197 
Q 2756 1666 2539 1819 
Q 2322 1972 1947 1972 
L 1259 1972 
L 1259 0 
L 628 0 
L 628 4666 
L 2053 4666 
Q 2853 4666 3247 4331 
Q 3641 3997 3641 3322 
Q 3641 2881 3436 2590 
Q 3231 2300 2841 2188 
z
M 1259 4147 
L 1259 2491 
L 2053 2491 
Q 2509 2491 2742 2702 
Q 2975 2913 2975 3322 
Q 2975 3731 2742 3939 
Q 2509 4147 2053 4147 
L 1259 4147 
z
" transform="scale(0.015625)"/>
       <path id="DejaVuSans-4b" d="M 628 4666 
L 1259 4666 
L 1259 2694 
L 3353 4666 
L 4166 4666 
L 1850 2491 
L 4331 0 
L 3500 0 
L 1259 2247 
L 1259 0 
L 628 0 
L 628 4666 
z
" transform="scale(0.015625)"/>
       <path id="DejaVuSans-Oblique-3b1" d="M 2619 1628 
L 2622 2350 
Q 2625 3088 2069 3091 
Q 1653 3094 1394 2747 
Q 1069 2319 959 1747 
Q 825 1059 994 731 
Q 1169 397 1547 397 
Q 1966 397 2319 1063 
L 2619 1628 
z
M 2166 3578 
Q 3141 3594 3128 2584 
Q 3128 2584 3616 3500 
L 4128 3500 
L 3119 1603 
L 3109 919 
Q 3109 766 3194 638 
Q 3291 488 3391 488 
L 3669 488 
L 3575 0 
L 3228 0 
Q 2934 0 2722 263 
Q 2622 394 2619 669 
Q 2416 334 2066 50 
Q 1900 -81 1453 -78 
Q 722 -72 456 397 
Q 184 884 353 1747 
Q 534 2675 1009 3097 
Q 1544 3569 2166 3578 
z
" transform="scale(0.015625)"/>
       <path id="DejaVuSans-2e" d="M 684 794 
L 1344 794 
L 1344 0 
L 684 0 
L 684 794 
z
" transform="scale(0.015625)"/>
      </defs>
      <use xlink:href="#DejaVuSans-4d" transform="translate(0 0.578125)"/>
      <use xlink:href="#DejaVuSans-45" transform="translate(86.279297 0.578125)"/>
      <use xlink:href="#DejaVuSans-54" transform="translate(149.462891 0.578125)"/>
      <use xlink:href="#DejaVuSans-49" transform="translate(210.546875 0.578125)"/>
      <use xlink:href="#DejaVuSans-53" transform="translate(240.039062 0.578125)"/>
      <use xlink:href="#DejaVuSans-20" transform="translate(303.515625 0.578125)"/>
      <use xlink:href="#DejaVuSans-7c" transform="translate(335.302734 0.578125)"/>
      <use xlink:href="#DejaVuSans-20" transform="translate(368.994141 0.578125)"/>
      <use xlink:href="#DejaVuSans-49" transform="translate(400.78125 0.578125)"/>
      <use xlink:href="#DejaVuSans-53" transform="translate(430.273438 0.578125)"/>
      <use xlink:href="#DejaVuSans-4f" transform="translate(493.75 0.578125)"/>
      <use xlink:href="#DejaVuSans-52" transform="translate(572.460938 0.578125)"/>
      <use xlink:href="#DejaVuSans-41" transform="translate(641.943359 0.578125)"/>
      <use xlink:href="#DejaVuSans-4e" transform="translate(710.351562 0.578125)"/>
      <use xlink:href="#DejaVuSans-4b" transform="translate(785.15625 0.578125)"/>
      <use xlink:href="#DejaVuSans-20" transform="translate(850.732422 0.578125)"/>
      <use xlink:href="#DejaVuSans-7c" transform="translate(882.519531 0.578125)"/>
      <use xlink:href="#DejaVuSans-20" transform="translate(916.210938 0.578125)"/>
      <use xlink:href="#DejaVuSans-Oblique-3b1" transform="translate(947.998047 0.578125)"/>
      <use xlink:href="#DejaVuSans-20" transform="translate(1013.916016 0.578125)"/>
      <use xlink:href="#DejaVuSans-3d" transform="translate(1045.703125 0.578125)"/>
      <use xlink:href="#DejaVuSans-20" transform="translate(1129.492188 0.578125)"/>
      <use xlink:href="#DejaVuSans-30" transform="translate(1161.279297 0.578125)"/>
      <use xlink:href="#DejaVuSans-2e" transform="translate(1224.902344 0.578125)"/>
      <use xlink:href="#DejaVuSans-30" transform="translate(1256.689453 0.578125)"/>
      <use xlink:href="#DejaVuSans-35" transform="translate(1320.3125 0.578125)"/>
     </g>
    </g>
    <g id="line2d_44">
     <path d="M 387.793594 113.65 
L 394.793594 113.65 
L 401.793594 113.65 
" style="fill: none; stroke: #9cfba4; stroke-width: 1.5; stroke-linecap: square"/>
     <g>
      <use xlink:href="#m5b63a696e2" x="394.793594" y="113.65" style="fill: #9cfba4; stroke: #9cfba4"/>
     </g>
    </g>
    <g id="text_23">
     <!-- METIS | ISORANK | $\alpha$ = 0.1 -->
     <g transform="translate(407.393594 116.1) scale(0.07 -0.07)">
      <use xlink:href="#DejaVuSans-4d" transform="translate(0 0.578125)"/>
      <use xlink:href="#DejaVuSans-45" transform="translate(86.279297 0.578125)"/>
      <use xlink:href="#DejaVuSans-54" transform="translate(149.462891 0.578125)"/>
      <use xlink:href="#DejaVuSans-49" transform="translate(210.546875 0.578125)"/>
      <use xlink:href="#DejaVuSans-53" transform="translate(240.039062 0.578125)"/>
      <use xlink:href="#DejaVuSans-20" transform="translate(303.515625 0.578125)"/>
      <use xlink:href="#DejaVuSans-7c" transform="translate(335.302734 0.578125)"/>
      <use xlink:href="#DejaVuSans-20" transform="translate(368.994141 0.578125)"/>
      <use xlink:href="#DejaVuSans-49" transform="translate(400.78125 0.578125)"/>
      <use xlink:href="#DejaVuSans-53" transform="translate(430.273438 0.578125)"/>
      <use xlink:href="#DejaVuSans-4f" transform="translate(493.75 0.578125)"/>
      <use xlink:href="#DejaVuSans-52" transform="translate(572.460938 0.578125)"/>
      <use xlink:href="#DejaVuSans-41" transform="translate(641.943359 0.578125)"/>
      <use xlink:href="#DejaVuSans-4e" transform="translate(710.351562 0.578125)"/>
      <use xlink:href="#DejaVuSans-4b" transform="translate(785.15625 0.578125)"/>
      <use xlink:href="#DejaVuSans-20" transform="translate(850.732422 0.578125)"/>
      <use xlink:href="#DejaVuSans-7c" transform="translate(882.519531 0.578125)"/>
      <use xlink:href="#DejaVuSans-20" transform="translate(916.210938 0.578125)"/>
      <use xlink:href="#DejaVuSans-Oblique-3b1" transform="translate(947.998047 0.578125)"/>
      <use xlink:href="#DejaVuSans-20" transform="translate(1013.916016 0.578125)"/>
      <use xlink:href="#DejaVuSans-3d" transform="translate(1045.703125 0.578125)"/>
      <use xlink:href="#DejaVuSans-20" transform="translate(1129.492188 0.578125)"/>
      <use xlink:href="#DejaVuSans-30" transform="translate(1161.279297 0.578125)"/>
      <use xlink:href="#DejaVuSans-2e" transform="translate(1224.902344 0.578125)"/>
      <use xlink:href="#DejaVuSans-31" transform="translate(1256.689453 0.578125)"/>
     </g>
    </g>
    <g id="line2d_45">
     <path d="M 387.793594 124.179531 
L 394.793594 124.179531 
L 401.793594 124.179531 
" style="fill: none; stroke: #d4dd80; stroke-width: 1.5; stroke-linecap: square"/>
     <g>
      <use xlink:href="#mab40086d8b" x="394.793594" y="124.179531" style="fill: #d4dd80; stroke: #d4dd80"/>
     </g>
    </g>
    <g id="text_24">
     <!-- CTCEHC (weight = bw) | MAGNA++ | fitness_function_degree, PMX -->
     <g transform="translate(407.393594 126.629531) scale(0.07 -0.07)">
      <use xlink:href="#DejaVuSans-43"/>
      <use xlink:href="#DejaVuSans-54" x="69.824219"/>
      <use xlink:href="#DejaVuSans-43" x="125.033203"/>
      <use xlink:href="#DejaVuSans-45" x="194.857422"/>
      <use xlink:href="#DejaVuSans-48" x="258.041016"/>
      <use xlink:href="#DejaVuSans-43" x="333.236328"/>
      <use xlink:href="#DejaVuSans-20" x="403.060547"/>
      <use xlink:href="#DejaVuSans-28" x="434.847656"/>
      <use xlink:href="#DejaVuSans-77" x="473.861328"/>
      <use xlink:href="#DejaVuSans-65" x="555.648438"/>
      <use xlink:href="#DejaVuSans-69" x="617.171875"/>
      <use xlink:href="#DejaVuSans-67" x="644.955078"/>
      <use xlink:href="#DejaVuSans-68" x="708.431641"/>
      <use xlink:href="#DejaVuSans-74" x="771.810547"/>
      <use xlink:href="#DejaVuSans-20" x="811.019531"/>
      <use xlink:href="#DejaVuSans-3d" x="842.806641"/>
      <use xlink:href="#DejaVuSans-20" x="926.595703"/>
      <use xlink:href="#DejaVuSans-62" x="958.382812"/>
      <use xlink:href="#DejaVuSans-77" x="1021.859375"/>
      <use xlink:href="#DejaVuSans-29" x="1103.646484"/>
      <use xlink:href="#DejaVuSans-20" x="1142.660156"/>
      <use xlink:href="#DejaVuSans-7c" x="1174.447266"/>
      <use xlink:href="#DejaVuSans-20" x="1208.138672"/>
      <use xlink:href="#DejaVuSans-4d" x="1239.925781"/>
      <use xlink:href="#DejaVuSans-41" x="1326.205078"/>
      <use xlink:href="#DejaVuSans-47" x="1392.863281"/>
      <use xlink:href="#DejaVuSans-4e" x="1470.353516"/>
      <use xlink:href="#DejaVuSans-41" x="1545.158203"/>
      <use xlink:href="#DejaVuSans-2b" x="1613.566406"/>
      <use xlink:href="#DejaVuSans-2b" x="1697.355469"/>
      <use xlink:href="#DejaVuSans-20" x="1781.144531"/>
      <use xlink:href="#DejaVuSans-7c" x="1812.931641"/>
      <use xlink:href="#DejaVuSans-20" x="1846.623047"/>
      <use xlink:href="#DejaVuSans-66" x="1878.410156"/>
      <use xlink:href="#DejaVuSans-69" x="1913.615234"/>
      <use xlink:href="#DejaVuSans-74" x="1941.398438"/>
      <use xlink:href="#DejaVuSans-6e" x="1980.607422"/>
      <use xlink:href="#DejaVuSans-65" x="2043.986328"/>
      <use xlink:href="#DejaVuSans-73" x="2105.509766"/>
      <use xlink:href="#DejaVuSans-73" x="2157.609375"/>
      <use xlink:href="#DejaVuSans-5f" x="2209.708984"/>
      <use xlink:href="#DejaVuSans-66" x="2259.708984"/>
      <use xlink:href="#DejaVuSans-75" x="2294.914062"/>
      <use xlink:href="#DejaVuSans-6e" x="2358.292969"/>
      <use xlink:href="#DejaVuSans-63" x="2421.671875"/>
      <use xlink:href="#DejaVuSans-74" x="2476.652344"/>
      <use xlink:href="#DejaVuSans-69" x="2515.861328"/>
      <use xlink:href="#DejaVuSans-6f" x="2543.644531"/>
      <use xlink:href="#DejaVuSans-6e" x="2604.826172"/>
      <use xlink:href="#DejaVuSans-5f" x="2668.205078"/>
      <use xlink:href="#DejaVuSans-64" x="2718.205078"/>
      <use xlink:href="#DejaVuSans-65" x="2781.681641"/>
      <use xlink:href="#DejaVuSans-67" x="2843.205078"/>
      <use xlink:href="#DejaVuSans-72" x="2906.681641"/>
      <use xlink:href="#DejaVuSans-65" x="2945.544922"/>
      <use xlink:href="#DejaVuSans-65" x="3007.068359"/>
      <use xlink:href="#DejaVuSans-2c" x="3068.591797"/>
      <use xlink:href="#DejaVuSans-20" x="3100.378906"/>
      <use xlink:href="#DejaVuSans-50" x="3132.166016"/>
      <use xlink:href="#DejaVuSans-4d" x="3192.46875"/>
      <use xlink:href="#DejaVuSans-58" x="3278.748047"/>
     </g>
    </g>
    <g id="line2d_46">
     <path d="M 387.793594 134.679531 
L 394.793594 134.679531 
L 401.793594 134.679531 
" style="fill: none; stroke: #ffa256; stroke-width: 1.5; stroke-linecap: square"/>
     <g>
      <use xlink:href="#ma5d3f08c3a" x="394.793594" y="134.679531" style="fill: #ffa256; stroke: #ffa256"/>
     </g>
    </g>
    <g id="text_25">
     <!-- CTCEHC (weight = bw) | MAGNA++ | fitness_function_k_min, PMX -->
     <g transform="translate(407.393594 137.129531) scale(0.07 -0.07)">
      <use xlink:href="#DejaVuSans-43"/>
      <use xlink:href="#DejaVuSans-54" x="69.824219"/>
      <use xlink:href="#DejaVuSans-43" x="125.033203"/>
      <use xlink:href="#DejaVuSans-45" x="194.857422"/>
      <use xlink:href="#DejaVuSans-48" x="258.041016"/>
      <use xlink:href="#DejaVuSans-43" x="333.236328"/>
      <use xlink:href="#DejaVuSans-20" x="403.060547"/>
      <use xlink:href="#DejaVuSans-28" x="434.847656"/>
      <use xlink:href="#DejaVuSans-77" x="473.861328"/>
      <use xlink:href="#DejaVuSans-65" x="555.648438"/>
      <use xlink:href="#DejaVuSans-69" x="617.171875"/>
      <use xlink:href="#DejaVuSans-67" x="644.955078"/>
      <use xlink:href="#DejaVuSans-68" x="708.431641"/>
      <use xlink:href="#DejaVuSans-74" x="771.810547"/>
      <use xlink:href="#DejaVuSans-20" x="811.019531"/>
      <use xlink:href="#DejaVuSans-3d" x="842.806641"/>
      <use xlink:href="#DejaVuSans-20" x="926.595703"/>
      <use xlink:href="#DejaVuSans-62" x="958.382812"/>
      <use xlink:href="#DejaVuSans-77" x="1021.859375"/>
      <use xlink:href="#DejaVuSans-29" x="1103.646484"/>
      <use xlink:href="#DejaVuSans-20" x="1142.660156"/>
      <use xlink:href="#DejaVuSans-7c" x="1174.447266"/>
      <use xlink:href="#DejaVuSans-20" x="1208.138672"/>
      <use xlink:href="#DejaVuSans-4d" x="1239.925781"/>
      <use xlink:href="#DejaVuSans-41" x="1326.205078"/>
      <use xlink:href="#DejaVuSans-47" x="1392.863281"/>
      <use xlink:href="#DejaVuSans-4e" x="1470.353516"/>
      <use xlink:href="#DejaVuSans-41" x="1545.158203"/>
      <use xlink:href="#DejaVuSans-2b" x="1613.566406"/>
      <use xlink:href="#DejaVuSans-2b" x="1697.355469"/>
      <use xlink:href="#DejaVuSans-20" x="1781.144531"/>
      <use xlink:href="#DejaVuSans-7c" x="1812.931641"/>
      <use xlink:href="#DejaVuSans-20" x="1846.623047"/>
      <use xlink:href="#DejaVuSans-66" x="1878.410156"/>
      <use xlink:href="#DejaVuSans-69" x="1913.615234"/>
      <use xlink:href="#DejaVuSans-74" x="1941.398438"/>
      <use xlink:href="#DejaVuSans-6e" x="1980.607422"/>
      <use xlink:href="#DejaVuSans-65" x="2043.986328"/>
      <use xlink:href="#DejaVuSans-73" x="2105.509766"/>
      <use xlink:href="#DejaVuSans-73" x="2157.609375"/>
      <use xlink:href="#DejaVuSans-5f" x="2209.708984"/>
      <use xlink:href="#DejaVuSans-66" x="2259.708984"/>
      <use xlink:href="#DejaVuSans-75" x="2294.914062"/>
      <use xlink:href="#DejaVuSans-6e" x="2358.292969"/>
      <use xlink:href="#DejaVuSans-63" x="2421.671875"/>
      <use xlink:href="#DejaVuSans-74" x="2476.652344"/>
      <use xlink:href="#DejaVuSans-69" x="2515.861328"/>
      <use xlink:href="#DejaVuSans-6f" x="2543.644531"/>
      <use xlink:href="#DejaVuSans-6e" x="2604.826172"/>
      <use xlink:href="#DejaVuSans-5f" x="2668.205078"/>
      <use xlink:href="#DejaVuSans-6b" x="2718.205078"/>
      <use xlink:href="#DejaVuSans-5f" x="2776.115234"/>
      <use xlink:href="#DejaVuSans-6d" x="2826.115234"/>
      <use xlink:href="#DejaVuSans-69" x="2923.527344"/>
      <use xlink:href="#DejaVuSans-6e" x="2951.310547"/>
      <use xlink:href="#DejaVuSans-2c" x="3014.689453"/>
      <use xlink:href="#DejaVuSans-20" x="3046.476562"/>
      <use xlink:href="#DejaVuSans-50" x="3078.263672"/>
      <use xlink:href="#DejaVuSans-4d" x="3138.566406"/>
      <use xlink:href="#DejaVuSans-58" x="3224.845703"/>
     </g>
    </g>
    <g id="line2d_47">
     <path d="M 387.793594 145.22 
L 394.793594 145.22 
L 401.793594 145.22 
" style="fill: none; stroke: #ff562c; stroke-width: 1.5; stroke-linecap: square"/>
     <g>
      <use xlink:href="#m3b8db344a1" x="394.793594" y="145.22" style="fill: #ff562c; stroke: #ff562c"/>
     </g>
    </g>
    <g id="text_26">
     <!-- CTCEHC (weight = bw) | ISORANK | $\alpha$ = 0.05 -->
     <g transform="translate(407.393594 147.67) scale(0.07 -0.07)">
      <use xlink:href="#DejaVuSans-43" transform="translate(0 0.578125)"/>
      <use xlink:href="#DejaVuSans-54" transform="translate(69.824219 0.578125)"/>
      <use xlink:href="#DejaVuSans-43" transform="translate(130.908203 0.578125)"/>
      <use xlink:href="#DejaVuSans-45" transform="translate(200.732422 0.578125)"/>
      <use xlink:href="#DejaVuSans-48" transform="translate(263.916016 0.578125)"/>
      <use xlink:href="#DejaVuSans-43" transform="translate(339.111328 0.578125)"/>
      <use xlink:href="#DejaVuSans-20" transform="translate(408.935547 0.578125)"/>
      <use xlink:href="#DejaVuSans-28" transform="translate(440.722656 0.578125)"/>
      <use xlink:href="#DejaVuSans-77" transform="translate(479.736328 0.578125)"/>
      <use xlink:href="#DejaVuSans-65" transform="translate(561.523438 0.578125)"/>
      <use xlink:href="#DejaVuSans-69" transform="translate(623.046875 0.578125)"/>
      <use xlink:href="#DejaVuSans-67" transform="translate(650.830078 0.578125)"/>
      <use xlink:href="#DejaVuSans-68" transform="translate(714.306641 0.578125)"/>
      <use xlink:href="#DejaVuSans-74" transform="translate(777.685547 0.578125)"/>
      <use xlink:href="#DejaVuSans-20" transform="translate(816.894531 0.578125)"/>
      <use xlink:href="#DejaVuSans-3d" transform="translate(848.681641 0.578125)"/>
      <use xlink:href="#DejaVuSans-20" transform="translate(932.470703 0.578125)"/>
      <use xlink:href="#DejaVuSans-62" transform="translate(964.257812 0.578125)"/>
      <use xlink:href="#DejaVuSans-77" transform="translate(1027.734375 0.578125)"/>
      <use xlink:href="#DejaVuSans-29" transform="translate(1109.521484 0.578125)"/>
      <use xlink:href="#DejaVuSans-20" transform="translate(1148.535156 0.578125)"/>
      <use xlink:href="#DejaVuSans-7c" transform="translate(1180.322266 0.578125)"/>
      <use xlink:href="#DejaVuSans-20" transform="translate(1214.013672 0.578125)"/>
      <use xlink:href="#DejaVuSans-49" transform="translate(1245.800781 0.578125)"/>
      <use xlink:href="#DejaVuSans-53" transform="translate(1275.292969 0.578125)"/>
      <use xlink:href="#DejaVuSans-4f" transform="translate(1338.769531 0.578125)"/>
      <use xlink:href="#DejaVuSans-52" transform="translate(1417.480469 0.578125)"/>
      <use xlink:href="#DejaVuSans-41" transform="translate(1486.962891 0.578125)"/>
      <use xlink:href="#DejaVuSans-4e" transform="translate(1555.371094 0.578125)"/>
      <use xlink:href="#DejaVuSans-4b" transform="translate(1630.175781 0.578125)"/>
      <use xlink:href="#DejaVuSans-20" transform="translate(1695.751953 0.578125)"/>
      <use xlink:href="#DejaVuSans-7c" transform="translate(1727.539062 0.578125)"/>
      <use xlink:href="#DejaVuSans-20" transform="translate(1761.230469 0.578125)"/>
      <use xlink:href="#DejaVuSans-Oblique-3b1" transform="translate(1793.017578 0.578125)"/>
      <use xlink:href="#DejaVuSans-20" transform="translate(1858.935547 0.578125)"/>
      <use xlink:href="#DejaVuSans-3d" transform="translate(1890.722656 0.578125)"/>
      <use xlink:href="#DejaVuSans-20" transform="translate(1974.511719 0.578125)"/>
      <use xlink:href="#DejaVuSans-30" transform="translate(2006.298828 0.578125)"/>
      <use xlink:href="#DejaVuSans-2e" transform="translate(2069.921875 0.578125)"/>
      <use xlink:href="#DejaVuSans-30" transform="translate(2101.708984 0.578125)"/>
      <use xlink:href="#DejaVuSans-35" transform="translate(2165.332031 0.578125)"/>
     </g>
    </g>
    <g id="line2d_48">
     <path d="M 387.793594 155.79 
L 394.793594 155.79 
L 401.793594 155.79 
" style="fill: none; stroke: #ff0000; stroke-width: 1.5; stroke-linecap: square"/>
     <g>
      <use xlink:href="#m4b75bf0e96" x="394.793594" y="155.79" style="fill: #ff0000; stroke: #ff0000"/>
     </g>
    </g>
    <g id="text_27">
     <!-- CTCEHC (weight = bw) | ISORANK | $\alpha$ = 0.1 -->
     <g transform="translate(407.393594 158.24) scale(0.07 -0.07)">
      <use xlink:href="#DejaVuSans-43" transform="translate(0 0.578125)"/>
      <use xlink:href="#DejaVuSans-54" transform="translate(69.824219 0.578125)"/>
      <use xlink:href="#DejaVuSans-43" transform="translate(130.908203 0.578125)"/>
      <use xlink:href="#DejaVuSans-45" transform="translate(200.732422 0.578125)"/>
      <use xlink:href="#DejaVuSans-48" transform="translate(263.916016 0.578125)"/>
      <use xlink:href="#DejaVuSans-43" transform="translate(339.111328 0.578125)"/>
      <use xlink:href="#DejaVuSans-20" transform="translate(408.935547 0.578125)"/>
      <use xlink:href="#DejaVuSans-28" transform="translate(440.722656 0.578125)"/>
      <use xlink:href="#DejaVuSans-77" transform="translate(479.736328 0.578125)"/>
      <use xlink:href="#DejaVuSans-65" transform="translate(561.523438 0.578125)"/>
      <use xlink:href="#DejaVuSans-69" transform="translate(623.046875 0.578125)"/>
      <use xlink:href="#DejaVuSans-67" transform="translate(650.830078 0.578125)"/>
      <use xlink:href="#DejaVuSans-68" transform="translate(714.306641 0.578125)"/>
      <use xlink:href="#DejaVuSans-74" transform="translate(777.685547 0.578125)"/>
      <use xlink:href="#DejaVuSans-20" transform="translate(816.894531 0.578125)"/>
      <use xlink:href="#DejaVuSans-3d" transform="translate(848.681641 0.578125)"/>
      <use xlink:href="#DejaVuSans-20" transform="translate(932.470703 0.578125)"/>
      <use xlink:href="#DejaVuSans-62" transform="translate(964.257812 0.578125)"/>
      <use xlink:href="#DejaVuSans-77" transform="translate(1027.734375 0.578125)"/>
      <use xlink:href="#DejaVuSans-29" transform="translate(1109.521484 0.578125)"/>
      <use xlink:href="#DejaVuSans-20" transform="translate(1148.535156 0.578125)"/>
      <use xlink:href="#DejaVuSans-7c" transform="translate(1180.322266 0.578125)"/>
      <use xlink:href="#DejaVuSans-20" transform="translate(1214.013672 0.578125)"/>
      <use xlink:href="#DejaVuSans-49" transform="translate(1245.800781 0.578125)"/>
      <use xlink:href="#DejaVuSans-53" transform="translate(1275.292969 0.578125)"/>
      <use xlink:href="#DejaVuSans-4f" transform="translate(1338.769531 0.578125)"/>
      <use xlink:href="#DejaVuSans-52" transform="translate(1417.480469 0.578125)"/>
      <use xlink:href="#DejaVuSans-41" transform="translate(1486.962891 0.578125)"/>
      <use xlink:href="#DejaVuSans-4e" transform="translate(1555.371094 0.578125)"/>
      <use xlink:href="#DejaVuSans-4b" transform="translate(1630.175781 0.578125)"/>
      <use xlink:href="#DejaVuSans-20" transform="translate(1695.751953 0.578125)"/>
      <use xlink:href="#DejaVuSans-7c" transform="translate(1727.539062 0.578125)"/>
      <use xlink:href="#DejaVuSans-20" transform="translate(1761.230469 0.578125)"/>
      <use xlink:href="#DejaVuSans-Oblique-3b1" transform="translate(1793.017578 0.578125)"/>
      <use xlink:href="#DejaVuSans-20" transform="translate(1858.935547 0.578125)"/>
      <use xlink:href="#DejaVuSans-3d" transform="translate(1890.722656 0.578125)"/>
      <use xlink:href="#DejaVuSans-20" transform="translate(1974.511719 0.578125)"/>
      <use xlink:href="#DejaVuSans-30" transform="translate(2006.298828 0.578125)"/>
      <use xlink:href="#DejaVuSans-2e" transform="translate(2069.921875 0.578125)"/>
      <use xlink:href="#DejaVuSans-31" transform="translate(2101.708984 0.578125)"/>
     </g>
    </g>
   </g>
  </g>
 </g>
 <defs>
  <clipPath id="pae9d421cf5">
   <rect x="90" y="51.84" width="558" height="332.64"/>
  </clipPath>
 </defs>
</svg>
