<?xml version="1.0" encoding="utf-8" standalone="no"?>
<!DOCTYPE svg PUBLIC "-//W3C//DTD SVG 1.1//EN"
  "http://www.w3.org/Graphics/SVG/1.1/DTD/svg11.dtd">
<svg xmlns:xlink="http://www.w3.org/1999/xlink" width="720pt" height="432pt" viewBox="0 0 720 432" xmlns="http://www.w3.org/2000/svg" version="1.1">
 <metadata>
  <rdf:RDF xmlns:dc="http://purl.org/dc/elements/1.1/" xmlns:cc="http://creativecommons.org/ns#" xmlns:rdf="http://www.w3.org/1999/02/22-rdf-syntax-ns#">
   <cc:Work>
    <dc:type rdf:resource="http://purl.org/dc/dcmitype/StillImage"/>
    <dc:date>2024-03-25T19:24:59.687403</dc:date>
    <dc:format>image/svg+xml</dc:format>
    <dc:creator>
     <cc:Agent>
      <dc:title>Matplotlib v3.8.3, https://matplotlib.org/</dc:title>
     </cc:Agent>
    </dc:creator>
   </cc:Work>
  </rdf:RDF>
 </metadata>
 <defs>
  <style type="text/css">*{stroke-linejoin: round; stroke-linecap: butt}</style>
 </defs>
 <g id="figure_1">
  <g id="patch_1">
   <path d="M 0 432 
L 720 432 
L 720 0 
L 0 0 
z
" style="fill: #ffffff"/>
  </g>
  <g id="axes_1">
   <g id="patch_2">
    <path d="M 90 384.48 
L 648 384.48 
L 648 51.84 
L 90 51.84 
z
" style="fill: #ffffff"/>
   </g>
   <g id="matplotlib.axis_1">
    <g id="xtick_1">
     <g id="line2d_1">
      <path d="M 115.363636 384.48 
L 115.363636 51.84 
" clip-path="url(#pf536e567aa)" style="fill: none; stroke: #b0b0b0; stroke-width: 0.8; stroke-linecap: square"/>
     </g>
     <g id="line2d_2">
      <defs>
       <path id="m45a8dfd375" d="M 0 0 
L 0 3.5 
" style="stroke: #000000; stroke-width: 0.8"/>
      </defs>
      <g>
       <use xlink:href="#m45a8dfd375" x="115.363636" y="384.48" style="stroke: #000000; stroke-width: 0.8"/>
      </g>
     </g>
     <g id="text_1">
      <!-- 3 -->
      <g transform="translate(112.182386 399.078438) scale(0.1 -0.1)">
       <defs>
        <path id="DejaVuSans-33" d="M 2597 2516 
Q 3050 2419 3304 2112 
Q 3559 1806 3559 1356 
Q 3559 666 3084 287 
Q 2609 -91 1734 -91 
Q 1441 -91 1130 -33 
Q 819 25 488 141 
L 488 750 
Q 750 597 1062 519 
Q 1375 441 1716 441 
Q 2309 441 2620 675 
Q 2931 909 2931 1356 
Q 2931 1769 2642 2001 
Q 2353 2234 1838 2234 
L 1294 2234 
L 1294 2753 
L 1863 2753 
Q 2328 2753 2575 2939 
Q 2822 3125 2822 3475 
Q 2822 3834 2567 4026 
Q 2313 4219 1838 4219 
Q 1578 4219 1281 4162 
Q 984 4106 628 3988 
L 628 4550 
Q 988 4650 1302 4700 
Q 1616 4750 1894 4750 
Q 2613 4750 3031 4423 
Q 3450 4097 3450 3541 
Q 3450 3153 3228 2886 
Q 3006 2619 2597 2516 
z
" transform="scale(0.015625)"/>
       </defs>
       <use xlink:href="#DejaVuSans-33"/>
      </g>
     </g>
    </g>
    <g id="xtick_2">
     <g id="line2d_3">
      <path d="M 187.831169 384.48 
L 187.831169 51.84 
" clip-path="url(#pf536e567aa)" style="fill: none; stroke: #b0b0b0; stroke-width: 0.8; stroke-linecap: square"/>
     </g>
     <g id="line2d_4">
      <g>
       <use xlink:href="#m45a8dfd375" x="187.831169" y="384.48" style="stroke: #000000; stroke-width: 0.8"/>
      </g>
     </g>
     <g id="text_2">
      <!-- 4 -->
      <g transform="translate(184.649919 399.078438) scale(0.1 -0.1)">
       <defs>
        <path id="DejaVuSans-34" d="M 2419 4116 
L 825 1625 
L 2419 1625 
L 2419 4116 
z
M 2253 4666 
L 3047 4666 
L 3047 1625 
L 3713 1625 
L 3713 1100 
L 3047 1100 
L 3047 0 
L 2419 0 
L 2419 1100 
L 313 1100 
L 313 1709 
L 2253 4666 
z
" transform="scale(0.015625)"/>
       </defs>
       <use xlink:href="#DejaVuSans-34"/>
      </g>
     </g>
    </g>
    <g id="xtick_3">
     <g id="line2d_5">
      <path d="M 260.298701 384.48 
L 260.298701 51.84 
" clip-path="url(#pf536e567aa)" style="fill: none; stroke: #b0b0b0; stroke-width: 0.8; stroke-linecap: square"/>
     </g>
     <g id="line2d_6">
      <g>
       <use xlink:href="#m45a8dfd375" x="260.298701" y="384.48" style="stroke: #000000; stroke-width: 0.8"/>
      </g>
     </g>
     <g id="text_3">
      <!-- 5 -->
      <g transform="translate(257.117451 399.078438) scale(0.1 -0.1)">
       <defs>
        <path id="DejaVuSans-35" d="M 691 4666 
L 3169 4666 
L 3169 4134 
L 1269 4134 
L 1269 2991 
Q 1406 3038 1543 3061 
Q 1681 3084 1819 3084 
Q 2600 3084 3056 2656 
Q 3513 2228 3513 1497 
Q 3513 744 3044 326 
Q 2575 -91 1722 -91 
Q 1428 -91 1123 -41 
Q 819 9 494 109 
L 494 744 
Q 775 591 1075 516 
Q 1375 441 1709 441 
Q 2250 441 2565 725 
Q 2881 1009 2881 1497 
Q 2881 1984 2565 2268 
Q 2250 2553 1709 2553 
Q 1456 2553 1204 2497 
Q 953 2441 691 2322 
L 691 4666 
z
" transform="scale(0.015625)"/>
       </defs>
       <use xlink:href="#DejaVuSans-35"/>
      </g>
     </g>
    </g>
    <g id="xtick_4">
     <g id="line2d_7">
      <path d="M 332.766234 384.48 
L 332.766234 51.84 
" clip-path="url(#pf536e567aa)" style="fill: none; stroke: #b0b0b0; stroke-width: 0.8; stroke-linecap: square"/>
     </g>
     <g id="line2d_8">
      <g>
       <use xlink:href="#m45a8dfd375" x="332.766234" y="384.48" style="stroke: #000000; stroke-width: 0.8"/>
      </g>
     </g>
     <g id="text_4">
      <!-- 6 -->
      <g transform="translate(329.584984 399.078438) scale(0.1 -0.1)">
       <defs>
        <path id="DejaVuSans-36" d="M 2113 2584 
Q 1688 2584 1439 2293 
Q 1191 2003 1191 1497 
Q 1191 994 1439 701 
Q 1688 409 2113 409 
Q 2538 409 2786 701 
Q 3034 994 3034 1497 
Q 3034 2003 2786 2293 
Q 2538 2584 2113 2584 
z
M 3366 4563 
L 3366 3988 
Q 3128 4100 2886 4159 
Q 2644 4219 2406 4219 
Q 1781 4219 1451 3797 
Q 1122 3375 1075 2522 
Q 1259 2794 1537 2939 
Q 1816 3084 2150 3084 
Q 2853 3084 3261 2657 
Q 3669 2231 3669 1497 
Q 3669 778 3244 343 
Q 2819 -91 2113 -91 
Q 1303 -91 875 529 
Q 447 1150 447 2328 
Q 447 3434 972 4092 
Q 1497 4750 2381 4750 
Q 2619 4750 2861 4703 
Q 3103 4656 3366 4563 
z
" transform="scale(0.015625)"/>
       </defs>
       <use xlink:href="#DejaVuSans-36"/>
      </g>
     </g>
    </g>
    <g id="xtick_5">
     <g id="line2d_9">
      <path d="M 405.233766 384.48 
L 405.233766 51.84 
" clip-path="url(#pf536e567aa)" style="fill: none; stroke: #b0b0b0; stroke-width: 0.8; stroke-linecap: square"/>
     </g>
     <g id="line2d_10">
      <g>
       <use xlink:href="#m45a8dfd375" x="405.233766" y="384.48" style="stroke: #000000; stroke-width: 0.8"/>
      </g>
     </g>
     <g id="text_5">
      <!-- 7 -->
      <g transform="translate(402.052516 399.078438) scale(0.1 -0.1)">
       <defs>
        <path id="DejaVuSans-37" d="M 525 4666 
L 3525 4666 
L 3525 4397 
L 1831 0 
L 1172 0 
L 2766 4134 
L 525 4134 
L 525 4666 
z
" transform="scale(0.015625)"/>
       </defs>
       <use xlink:href="#DejaVuSans-37"/>
      </g>
     </g>
    </g>
    <g id="xtick_6">
     <g id="line2d_11">
      <path d="M 477.701299 384.48 
L 477.701299 51.84 
" clip-path="url(#pf536e567aa)" style="fill: none; stroke: #b0b0b0; stroke-width: 0.8; stroke-linecap: square"/>
     </g>
     <g id="line2d_12">
      <g>
       <use xlink:href="#m45a8dfd375" x="477.701299" y="384.48" style="stroke: #000000; stroke-width: 0.8"/>
      </g>
     </g>
     <g id="text_6">
      <!-- 8 -->
      <g transform="translate(474.520049 399.078438) scale(0.1 -0.1)">
       <defs>
        <path id="DejaVuSans-38" d="M 2034 2216 
Q 1584 2216 1326 1975 
Q 1069 1734 1069 1313 
Q 1069 891 1326 650 
Q 1584 409 2034 409 
Q 2484 409 2743 651 
Q 3003 894 3003 1313 
Q 3003 1734 2745 1975 
Q 2488 2216 2034 2216 
z
M 1403 2484 
Q 997 2584 770 2862 
Q 544 3141 544 3541 
Q 544 4100 942 4425 
Q 1341 4750 2034 4750 
Q 2731 4750 3128 4425 
Q 3525 4100 3525 3541 
Q 3525 3141 3298 2862 
Q 3072 2584 2669 2484 
Q 3125 2378 3379 2068 
Q 3634 1759 3634 1313 
Q 3634 634 3220 271 
Q 2806 -91 2034 -91 
Q 1263 -91 848 271 
Q 434 634 434 1313 
Q 434 1759 690 2068 
Q 947 2378 1403 2484 
z
M 1172 3481 
Q 1172 3119 1398 2916 
Q 1625 2713 2034 2713 
Q 2441 2713 2670 2916 
Q 2900 3119 2900 3481 
Q 2900 3844 2670 4047 
Q 2441 4250 2034 4250 
Q 1625 4250 1398 4047 
Q 1172 3844 1172 3481 
z
" transform="scale(0.015625)"/>
       </defs>
       <use xlink:href="#DejaVuSans-38"/>
      </g>
     </g>
    </g>
    <g id="xtick_7">
     <g id="line2d_13">
      <path d="M 550.168831 384.48 
L 550.168831 51.84 
" clip-path="url(#pf536e567aa)" style="fill: none; stroke: #b0b0b0; stroke-width: 0.8; stroke-linecap: square"/>
     </g>
     <g id="line2d_14">
      <g>
       <use xlink:href="#m45a8dfd375" x="550.168831" y="384.48" style="stroke: #000000; stroke-width: 0.8"/>
      </g>
     </g>
     <g id="text_7">
      <!-- 9 -->
      <g transform="translate(546.987581 399.078438) scale(0.1 -0.1)">
       <defs>
        <path id="DejaVuSans-39" d="M 703 97 
L 703 672 
Q 941 559 1184 500 
Q 1428 441 1663 441 
Q 2288 441 2617 861 
Q 2947 1281 2994 2138 
Q 2813 1869 2534 1725 
Q 2256 1581 1919 1581 
Q 1219 1581 811 2004 
Q 403 2428 403 3163 
Q 403 3881 828 4315 
Q 1253 4750 1959 4750 
Q 2769 4750 3195 4129 
Q 3622 3509 3622 2328 
Q 3622 1225 3098 567 
Q 2575 -91 1691 -91 
Q 1453 -91 1209 -44 
Q 966 3 703 97 
z
M 1959 2075 
Q 2384 2075 2632 2365 
Q 2881 2656 2881 3163 
Q 2881 3666 2632 3958 
Q 2384 4250 1959 4250 
Q 1534 4250 1286 3958 
Q 1038 3666 1038 3163 
Q 1038 2656 1286 2365 
Q 1534 2075 1959 2075 
z
" transform="scale(0.015625)"/>
       </defs>
       <use xlink:href="#DejaVuSans-39"/>
      </g>
     </g>
    </g>
    <g id="xtick_8">
     <g id="line2d_15">
      <path d="M 622.636364 384.48 
L 622.636364 51.84 
" clip-path="url(#pf536e567aa)" style="fill: none; stroke: #b0b0b0; stroke-width: 0.8; stroke-linecap: square"/>
     </g>
     <g id="line2d_16">
      <g>
       <use xlink:href="#m45a8dfd375" x="622.636364" y="384.48" style="stroke: #000000; stroke-width: 0.8"/>
      </g>
     </g>
     <g id="text_8">
      <!-- 10 -->
      <g transform="translate(616.273864 399.078438) scale(0.1 -0.1)">
       <defs>
        <path id="DejaVuSans-31" d="M 794 531 
L 1825 531 
L 1825 4091 
L 703 3866 
L 703 4441 
L 1819 4666 
L 2450 4666 
L 2450 531 
L 3481 531 
L 3481 0 
L 794 0 
L 794 531 
z
" transform="scale(0.015625)"/>
        <path id="DejaVuSans-30" d="M 2034 4250 
Q 1547 4250 1301 3770 
Q 1056 3291 1056 2328 
Q 1056 1369 1301 889 
Q 1547 409 2034 409 
Q 2525 409 2770 889 
Q 3016 1369 3016 2328 
Q 3016 3291 2770 3770 
Q 2525 4250 2034 4250 
z
M 2034 4750 
Q 2819 4750 3233 4129 
Q 3647 3509 3647 2328 
Q 3647 1150 3233 529 
Q 2819 -91 2034 -91 
Q 1250 -91 836 529 
Q 422 1150 422 2328 
Q 422 3509 836 4129 
Q 1250 4750 2034 4750 
z
" transform="scale(0.015625)"/>
       </defs>
       <use xlink:href="#DejaVuSans-31"/>
       <use xlink:href="#DejaVuSans-30" x="63.623047"/>
      </g>
     </g>
    </g>
    <g id="text_9">
     <!-- M -->
     <g transform="translate(364.685938 412.756563) scale(0.1 -0.1)">
      <defs>
       <path id="DejaVuSans-4d" d="M 628 4666 
L 1569 4666 
L 2759 1491 
L 3956 4666 
L 4897 4666 
L 4897 0 
L 4281 0 
L 4281 4097 
L 3078 897 
L 2444 897 
L 1241 4097 
L 1241 0 
L 628 0 
L 628 4666 
z
" transform="scale(0.015625)"/>
      </defs>
      <use xlink:href="#DejaVuSans-4d"/>
     </g>
    </g>
   </g>
   <g id="matplotlib.axis_2">
    <g id="ytick_1">
     <g id="line2d_17">
      <path d="M 90 345.443207 
L 648 345.443207 
" clip-path="url(#pf536e567aa)" style="fill: none; stroke: #b0b0b0; stroke-width: 0.8; stroke-linecap: square"/>
     </g>
     <g id="line2d_18">
      <defs>
       <path id="m81f58ccc37" d="M 0 0 
L -3.5 0 
" style="stroke: #000000; stroke-width: 0.8"/>
      </defs>
      <g>
       <use xlink:href="#m81f58ccc37" x="90" y="345.443207" style="stroke: #000000; stroke-width: 0.8"/>
      </g>
     </g>
     <g id="text_10">
      <!-- 20000 -->
      <g transform="translate(51.1875 349.242426) scale(0.1 -0.1)">
       <defs>
        <path id="DejaVuSans-32" d="M 1228 531 
L 3431 531 
L 3431 0 
L 469 0 
L 469 531 
Q 828 903 1448 1529 
Q 2069 2156 2228 2338 
Q 2531 2678 2651 2914 
Q 2772 3150 2772 3378 
Q 2772 3750 2511 3984 
Q 2250 4219 1831 4219 
Q 1534 4219 1204 4116 
Q 875 4013 500 3803 
L 500 4441 
Q 881 4594 1212 4672 
Q 1544 4750 1819 4750 
Q 2544 4750 2975 4387 
Q 3406 4025 3406 3419 
Q 3406 3131 3298 2873 
Q 3191 2616 2906 2266 
Q 2828 2175 2409 1742 
Q 1991 1309 1228 531 
z
" transform="scale(0.015625)"/>
       </defs>
       <use xlink:href="#DejaVuSans-32"/>
       <use xlink:href="#DejaVuSans-30" x="63.623047"/>
       <use xlink:href="#DejaVuSans-30" x="127.246094"/>
       <use xlink:href="#DejaVuSans-30" x="190.869141"/>
       <use xlink:href="#DejaVuSans-30" x="254.492188"/>
      </g>
     </g>
    </g>
    <g id="ytick_2">
     <g id="line2d_19">
      <path d="M 90 279.917746 
L 648 279.917746 
" clip-path="url(#pf536e567aa)" style="fill: none; stroke: #b0b0b0; stroke-width: 0.8; stroke-linecap: square"/>
     </g>
     <g id="line2d_20">
      <g>
       <use xlink:href="#m81f58ccc37" x="90" y="279.917746" style="stroke: #000000; stroke-width: 0.8"/>
      </g>
     </g>
     <g id="text_11">
      <!-- 40000 -->
      <g transform="translate(51.1875 283.716965) scale(0.1 -0.1)">
       <use xlink:href="#DejaVuSans-34"/>
       <use xlink:href="#DejaVuSans-30" x="63.623047"/>
       <use xlink:href="#DejaVuSans-30" x="127.246094"/>
       <use xlink:href="#DejaVuSans-30" x="190.869141"/>
       <use xlink:href="#DejaVuSans-30" x="254.492188"/>
      </g>
     </g>
    </g>
    <g id="ytick_3">
     <g id="line2d_21">
      <path d="M 90 214.392286 
L 648 214.392286 
" clip-path="url(#pf536e567aa)" style="fill: none; stroke: #b0b0b0; stroke-width: 0.8; stroke-linecap: square"/>
     </g>
     <g id="line2d_22">
      <g>
       <use xlink:href="#m81f58ccc37" x="90" y="214.392286" style="stroke: #000000; stroke-width: 0.8"/>
      </g>
     </g>
     <g id="text_12">
      <!-- 60000 -->
      <g transform="translate(51.1875 218.191505) scale(0.1 -0.1)">
       <use xlink:href="#DejaVuSans-36"/>
       <use xlink:href="#DejaVuSans-30" x="63.623047"/>
       <use xlink:href="#DejaVuSans-30" x="127.246094"/>
       <use xlink:href="#DejaVuSans-30" x="190.869141"/>
       <use xlink:href="#DejaVuSans-30" x="254.492188"/>
      </g>
     </g>
    </g>
    <g id="ytick_4">
     <g id="line2d_23">
      <path d="M 90 148.866826 
L 648 148.866826 
" clip-path="url(#pf536e567aa)" style="fill: none; stroke: #b0b0b0; stroke-width: 0.8; stroke-linecap: square"/>
     </g>
     <g id="line2d_24">
      <g>
       <use xlink:href="#m81f58ccc37" x="90" y="148.866826" style="stroke: #000000; stroke-width: 0.8"/>
      </g>
     </g>
     <g id="text_13">
      <!-- 80000 -->
      <g transform="translate(51.1875 152.666044) scale(0.1 -0.1)">
       <use xlink:href="#DejaVuSans-38"/>
       <use xlink:href="#DejaVuSans-30" x="63.623047"/>
       <use xlink:href="#DejaVuSans-30" x="127.246094"/>
       <use xlink:href="#DejaVuSans-30" x="190.869141"/>
       <use xlink:href="#DejaVuSans-30" x="254.492188"/>
      </g>
     </g>
    </g>
    <g id="ytick_5">
     <g id="line2d_25">
      <path d="M 90 83.341365 
L 648 83.341365 
" clip-path="url(#pf536e567aa)" style="fill: none; stroke: #b0b0b0; stroke-width: 0.8; stroke-linecap: square"/>
     </g>
     <g id="line2d_26">
      <g>
       <use xlink:href="#m81f58ccc37" x="90" y="83.341365" style="stroke: #000000; stroke-width: 0.8"/>
      </g>
     </g>
     <g id="text_14">
      <!-- 100000 -->
      <g transform="translate(44.825 87.140584) scale(0.1 -0.1)">
       <use xlink:href="#DejaVuSans-31"/>
       <use xlink:href="#DejaVuSans-30" x="63.623047"/>
       <use xlink:href="#DejaVuSans-30" x="127.246094"/>
       <use xlink:href="#DejaVuSans-30" x="190.869141"/>
       <use xlink:href="#DejaVuSans-30" x="254.492188"/>
       <use xlink:href="#DejaVuSans-30" x="318.115234"/>
      </g>
     </g>
    </g>
    <g id="text_15">
     <!-- K_MIN -->
     <g transform="translate(38.467187 233.468594) rotate(-90) scale(0.1 -0.1)">
      <defs>
       <path id="DejaVuSans-4b" d="M 628 4666 
L 1259 4666 
L 1259 2694 
L 3353 4666 
L 4166 4666 
L 1850 2491 
L 4331 0 
L 3500 0 
L 1259 2247 
L 1259 0 
L 628 0 
L 628 4666 
z
" transform="scale(0.015625)"/>
       <path id="DejaVuSans-5f" d="M 3263 -1063 
L 3263 -1509 
L -63 -1509 
L -63 -1063 
L 3263 -1063 
z
" transform="scale(0.015625)"/>
       <path id="DejaVuSans-49" d="M 628 4666 
L 1259 4666 
L 1259 0 
L 628 0 
L 628 4666 
z
" transform="scale(0.015625)"/>
       <path id="DejaVuSans-4e" d="M 628 4666 
L 1478 4666 
L 3547 763 
L 3547 4666 
L 4159 4666 
L 4159 0 
L 3309 0 
L 1241 3903 
L 1241 0 
L 628 0 
L 628 4666 
z
" transform="scale(0.015625)"/>
      </defs>
      <use xlink:href="#DejaVuSans-4b"/>
      <use xlink:href="#DejaVuSans-5f" x="65.576172"/>
      <use xlink:href="#DejaVuSans-4d" x="115.576172"/>
      <use xlink:href="#DejaVuSans-49" x="201.855469"/>
      <use xlink:href="#DejaVuSans-4e" x="231.347656"/>
     </g>
    </g>
   </g>
   <g id="line2d_27">
    <path d="M 115.363636 369.36 
L 187.831169 344.624139 
L 260.298701 364.281777 
L 332.766234 349.047107 
L 405.233766 332.993369 
L 477.701299 256.492394 
L 550.168831 327.915146 
L 622.636364 226.67831 
" clip-path="url(#pf536e567aa)" style="fill: none; stroke: #000000; stroke-width: 3; stroke-linecap: square"/>
    <defs>
     <path id="m546b5a6835" d="M 0 3 
C 0.795609 3 1.55874 2.683901 2.12132 2.12132 
C 2.683901 1.55874 3 0.795609 3 0 
C 3 -0.795609 2.683901 -1.55874 2.12132 -2.12132 
C 1.55874 -2.683901 0.795609 -3 0 -3 
C -0.795609 -3 -1.55874 -2.683901 -2.12132 -2.12132 
C -2.683901 -1.55874 -3 -0.795609 -3 0 
C -3 0.795609 -2.683901 1.55874 -2.12132 2.12132 
C -1.55874 2.683901 -0.795609 3 0 3 
z
" style="stroke: #000000"/>
    </defs>
    <g clip-path="url(#pf536e567aa)">
     <use xlink:href="#m546b5a6835" x="115.363636" y="369.36" style="stroke: #000000"/>
     <use xlink:href="#m546b5a6835" x="187.831169" y="344.624139" style="stroke: #000000"/>
     <use xlink:href="#m546b5a6835" x="260.298701" y="364.281777" style="stroke: #000000"/>
     <use xlink:href="#m546b5a6835" x="332.766234" y="349.047107" style="stroke: #000000"/>
     <use xlink:href="#m546b5a6835" x="405.233766" y="332.993369" style="stroke: #000000"/>
     <use xlink:href="#m546b5a6835" x="477.701299" y="256.492394" style="stroke: #000000"/>
     <use xlink:href="#m546b5a6835" x="550.168831" y="327.915146" style="stroke: #000000"/>
     <use xlink:href="#m546b5a6835" x="622.636364" y="226.67831" style="stroke: #000000"/>
    </g>
   </g>
   <g id="line2d_28">
    <path d="M 115.363636 328.242774 
L 187.831169 308.585135 
L 260.298701 280.409187 
L 332.766234 305.308862 
L 405.233766 250.431289 
L 477.701299 201.778635 
L 550.168831 244.533998 
L 622.636364 173.438873 
" clip-path="url(#pf536e567aa)" style="fill: none; stroke: #8000ff; stroke-width: 1.5; stroke-linecap: square"/>
    <defs>
     <path id="mc9b06c172b" d="M 0 3 
C 0.795609 3 1.55874 2.683901 2.12132 2.12132 
C 2.683901 1.55874 3 0.795609 3 0 
C 3 -0.795609 2.683901 -1.55874 2.12132 -2.12132 
C 1.55874 -2.683901 0.795609 -3 0 -3 
C -0.795609 -3 -1.55874 -2.683901 -2.12132 -2.12132 
C -2.683901 -1.55874 -3 -0.795609 -3 0 
C -3 0.795609 -2.683901 1.55874 -2.12132 2.12132 
C -1.55874 2.683901 -0.795609 3 0 3 
z
" style="stroke: #8000ff"/>
    </defs>
    <g clip-path="url(#pf536e567aa)">
     <use xlink:href="#mc9b06c172b" x="115.363636" y="328.242774" style="fill: #8000ff; stroke: #8000ff"/>
     <use xlink:href="#mc9b06c172b" x="187.831169" y="308.585135" style="fill: #8000ff; stroke: #8000ff"/>
     <use xlink:href="#mc9b06c172b" x="260.298701" y="280.409187" style="fill: #8000ff; stroke: #8000ff"/>
     <use xlink:href="#mc9b06c172b" x="332.766234" y="305.308862" style="fill: #8000ff; stroke: #8000ff"/>
     <use xlink:href="#mc9b06c172b" x="405.233766" y="250.431289" style="fill: #8000ff; stroke: #8000ff"/>
     <use xlink:href="#mc9b06c172b" x="477.701299" y="201.778635" style="fill: #8000ff; stroke: #8000ff"/>
     <use xlink:href="#mc9b06c172b" x="550.168831" y="244.533998" style="fill: #8000ff; stroke: #8000ff"/>
     <use xlink:href="#mc9b06c172b" x="622.636364" y="173.438873" style="fill: #8000ff; stroke: #8000ff"/>
    </g>
   </g>
   <g id="line2d_29">
    <path d="M 115.363636 328.242774 
L 187.831169 308.585135 
L 260.298701 325.457941 
L 332.766234 310.059458 
L 405.233766 195.062275 
L 477.701299 131.338765 
L 550.168831 242.40442 
L 622.636364 66.96 
" clip-path="url(#pf536e567aa)" style="fill: none; stroke: #2c7ef7; stroke-width: 1.5; stroke-linecap: square"/>
    <defs>
     <path id="m9a5f95aaa2" d="M 0 3 
C 0.795609 3 1.55874 2.683901 2.12132 2.12132 
C 2.683901 1.55874 3 0.795609 3 0 
C 3 -0.795609 2.683901 -1.55874 2.12132 -2.12132 
C 1.55874 -2.683901 0.795609 -3 0 -3 
C -0.795609 -3 -1.55874 -2.683901 -2.12132 -2.12132 
C -2.683901 -1.55874 -3 -0.795609 -3 0 
C -3 0.795609 -2.683901 1.55874 -2.12132 2.12132 
C -1.55874 2.683901 -0.795609 3 0 3 
z
" style="stroke: #2c7ef7"/>
    </defs>
    <g clip-path="url(#pf536e567aa)">
     <use xlink:href="#m9a5f95aaa2" x="115.363636" y="328.242774" style="fill: #2c7ef7; stroke: #2c7ef7"/>
     <use xlink:href="#m9a5f95aaa2" x="187.831169" y="308.585135" style="fill: #2c7ef7; stroke: #2c7ef7"/>
     <use xlink:href="#m9a5f95aaa2" x="260.298701" y="325.457941" style="fill: #2c7ef7; stroke: #2c7ef7"/>
     <use xlink:href="#m9a5f95aaa2" x="332.766234" y="310.059458" style="fill: #2c7ef7; stroke: #2c7ef7"/>
     <use xlink:href="#m9a5f95aaa2" x="405.233766" y="195.062275" style="fill: #2c7ef7; stroke: #2c7ef7"/>
     <use xlink:href="#m9a5f95aaa2" x="477.701299" y="131.338765" style="fill: #2c7ef7; stroke: #2c7ef7"/>
     <use xlink:href="#m9a5f95aaa2" x="550.168831" y="242.40442" style="fill: #2c7ef7; stroke: #2c7ef7"/>
     <use xlink:href="#m9a5f95aaa2" x="622.636364" y="66.96" style="fill: #2c7ef7; stroke: #2c7ef7"/>
    </g>
   </g>
   <g id="line2d_30">
    <path d="M 115.363636 328.242774 
L 187.831169 308.585135 
L 260.298701 325.457941 
L 332.766234 301.868776 
L 405.233766 211.44364 
L 477.701299 253.216121 
L 550.168831 155.255558 
L 622.636364 66.96 
" clip-path="url(#pf536e567aa)" style="fill: none; stroke: #2adddd; stroke-width: 1.5; stroke-linecap: square"/>
    <defs>
     <path id="m0e21ff1cac" d="M 0 3 
C 0.795609 3 1.55874 2.683901 2.12132 2.12132 
C 2.683901 1.55874 3 0.795609 3 0 
C 3 -0.795609 2.683901 -1.55874 2.12132 -2.12132 
C 1.55874 -2.683901 0.795609 -3 0 -3 
C -0.795609 -3 -1.55874 -2.683901 -2.12132 -2.12132 
C -2.683901 -1.55874 -3 -0.795609 -3 0 
C -3 0.795609 -2.683901 1.55874 -2.12132 2.12132 
C -1.55874 2.683901 -0.795609 3 0 3 
z
" style="stroke: #2adddd"/>
    </defs>
    <g clip-path="url(#pf536e567aa)">
     <use xlink:href="#m0e21ff1cac" x="115.363636" y="328.242774" style="fill: #2adddd; stroke: #2adddd"/>
     <use xlink:href="#m0e21ff1cac" x="187.831169" y="308.585135" style="fill: #2adddd; stroke: #2adddd"/>
     <use xlink:href="#m0e21ff1cac" x="260.298701" y="325.457941" style="fill: #2adddd; stroke: #2adddd"/>
     <use xlink:href="#m0e21ff1cac" x="332.766234" y="301.868776" style="fill: #2adddd; stroke: #2adddd"/>
     <use xlink:href="#m0e21ff1cac" x="405.233766" y="211.44364" style="fill: #2adddd; stroke: #2adddd"/>
     <use xlink:href="#m0e21ff1cac" x="477.701299" y="253.216121" style="fill: #2adddd; stroke: #2adddd"/>
     <use xlink:href="#m0e21ff1cac" x="550.168831" y="155.255558" style="fill: #2adddd; stroke: #2adddd"/>
     <use xlink:href="#m0e21ff1cac" x="622.636364" y="66.96" style="fill: #2adddd; stroke: #2adddd"/>
    </g>
   </g>
   <g id="line2d_31">
    <path d="M 115.363636 328.242774 
L 187.831169 308.585135 
L 260.298701 319.56065 
L 332.766234 301.868776 
L 405.233766 211.44364 
L 477.701299 256.492394 
L 550.168831 223.07441 
L 622.636364 66.96 
" clip-path="url(#pf536e567aa)" style="fill: none; stroke: #80ffb4; stroke-width: 1.5; stroke-linecap: square"/>
    <defs>
     <path id="m949fe36403" d="M 0 3 
C 0.795609 3 1.55874 2.683901 2.12132 2.12132 
C 2.683901 1.55874 3 0.795609 3 0 
C 3 -0.795609 2.683901 -1.55874 2.12132 -2.12132 
C 1.55874 -2.683901 0.795609 -3 0 -3 
C -0.795609 -3 -1.55874 -2.683901 -2.12132 -2.12132 
C -2.683901 -1.55874 -3 -0.795609 -3 0 
C -3 0.795609 -2.683901 1.55874 -2.12132 2.12132 
C -1.55874 2.683901 -0.795609 3 0 3 
z
" style="stroke: #80ffb4"/>
    </defs>
    <g clip-path="url(#pf536e567aa)">
     <use xlink:href="#m949fe36403" x="115.363636" y="328.242774" style="fill: #80ffb4; stroke: #80ffb4"/>
     <use xlink:href="#m949fe36403" x="187.831169" y="308.585135" style="fill: #80ffb4; stroke: #80ffb4"/>
     <use xlink:href="#m949fe36403" x="260.298701" y="319.56065" style="fill: #80ffb4; stroke: #80ffb4"/>
     <use xlink:href="#m949fe36403" x="332.766234" y="301.868776" style="fill: #80ffb4; stroke: #80ffb4"/>
     <use xlink:href="#m949fe36403" x="405.233766" y="211.44364" style="fill: #80ffb4; stroke: #80ffb4"/>
     <use xlink:href="#m949fe36403" x="477.701299" y="256.492394" style="fill: #80ffb4; stroke: #80ffb4"/>
     <use xlink:href="#m949fe36403" x="550.168831" y="223.07441" style="fill: #80ffb4; stroke: #80ffb4"/>
     <use xlink:href="#m949fe36403" x="622.636364" y="66.96" style="fill: #80ffb4; stroke: #80ffb4"/>
    </g>
   </g>
   <g id="line2d_32">
    <path d="M 115.363636 328.242774 
L 187.831169 308.585135 
L 260.298701 319.56065 
L 332.766234 310.059458 
L 405.233766 211.44364 
L 477.701299 256.492394 
L 550.168831 223.07441 
L 622.636364 66.96 
" clip-path="url(#pf536e567aa)" style="fill: none; stroke: #d4dd80; stroke-width: 1.5; stroke-linecap: square"/>
    <defs>
     <path id="ma824348828" d="M 0 3 
C 0.795609 3 1.55874 2.683901 2.12132 2.12132 
C 2.683901 1.55874 3 0.795609 3 0 
C 3 -0.795609 2.683901 -1.55874 2.12132 -2.12132 
C 1.55874 -2.683901 0.795609 -3 0 -3 
C -0.795609 -3 -1.55874 -2.683901 -2.12132 -2.12132 
C -2.683901 -1.55874 -3 -0.795609 -3 0 
C -3 0.795609 -2.683901 1.55874 -2.12132 2.12132 
C -1.55874 2.683901 -0.795609 3 0 3 
z
" style="stroke: #d4dd80"/>
    </defs>
    <g clip-path="url(#pf536e567aa)">
     <use xlink:href="#ma824348828" x="115.363636" y="328.242774" style="fill: #d4dd80; stroke: #d4dd80"/>
     <use xlink:href="#ma824348828" x="187.831169" y="308.585135" style="fill: #d4dd80; stroke: #d4dd80"/>
     <use xlink:href="#ma824348828" x="260.298701" y="319.56065" style="fill: #d4dd80; stroke: #d4dd80"/>
     <use xlink:href="#ma824348828" x="332.766234" y="310.059458" style="fill: #d4dd80; stroke: #d4dd80"/>
     <use xlink:href="#ma824348828" x="405.233766" y="211.44364" style="fill: #d4dd80; stroke: #d4dd80"/>
     <use xlink:href="#ma824348828" x="477.701299" y="256.492394" style="fill: #d4dd80; stroke: #d4dd80"/>
     <use xlink:href="#ma824348828" x="550.168831" y="223.07441" style="fill: #d4dd80; stroke: #d4dd80"/>
     <use xlink:href="#ma824348828" x="622.636364" y="66.96" style="fill: #d4dd80; stroke: #d4dd80"/>
    </g>
   </g>
   <g id="line2d_33">
    <path d="M 115.363636 328.242774 
L 187.831169 308.585135 
L 260.298701 315.137681 
L 332.766234 284.668342 
L 405.233766 235.032806 
L 477.701299 253.707562 
L 550.168831 178.025655 
L 622.636364 99.395103 
" clip-path="url(#pf536e567aa)" style="fill: none; stroke: #ff7e41; stroke-width: 1.5; stroke-linecap: square"/>
    <defs>
     <path id="mc30b741ddf" d="M 0 3 
C 0.795609 3 1.55874 2.683901 2.12132 2.12132 
C 2.683901 1.55874 3 0.795609 3 0 
C 3 -0.795609 2.683901 -1.55874 2.12132 -2.12132 
C 1.55874 -2.683901 0.795609 -3 0 -3 
C -0.795609 -3 -1.55874 -2.683901 -2.12132 -2.12132 
C -2.683901 -1.55874 -3 -0.795609 -3 0 
C -3 0.795609 -2.683901 1.55874 -2.12132 2.12132 
C -1.55874 2.683901 -0.795609 3 0 3 
z
" style="stroke: #ff7e41"/>
    </defs>
    <g clip-path="url(#pf536e567aa)">
     <use xlink:href="#mc30b741ddf" x="115.363636" y="328.242774" style="fill: #ff7e41; stroke: #ff7e41"/>
     <use xlink:href="#mc30b741ddf" x="187.831169" y="308.585135" style="fill: #ff7e41; stroke: #ff7e41"/>
     <use xlink:href="#mc30b741ddf" x="260.298701" y="315.137681" style="fill: #ff7e41; stroke: #ff7e41"/>
     <use xlink:href="#mc30b741ddf" x="332.766234" y="284.668342" style="fill: #ff7e41; stroke: #ff7e41"/>
     <use xlink:href="#mc30b741ddf" x="405.233766" y="235.032806" style="fill: #ff7e41; stroke: #ff7e41"/>
     <use xlink:href="#mc30b741ddf" x="477.701299" y="253.707562" style="fill: #ff7e41; stroke: #ff7e41"/>
     <use xlink:href="#mc30b741ddf" x="550.168831" y="178.025655" style="fill: #ff7e41; stroke: #ff7e41"/>
     <use xlink:href="#mc30b741ddf" x="622.636364" y="99.395103" style="fill: #ff7e41; stroke: #ff7e41"/>
    </g>
   </g>
   <g id="patch_3">
    <path d="M 90 384.48 
L 90 51.84 
" style="fill: none; stroke: #000000; stroke-width: 0.8; stroke-linejoin: miter; stroke-linecap: square"/>
   </g>
   <g id="patch_4">
    <path d="M 648 384.48 
L 648 51.84 
" style="fill: none; stroke: #000000; stroke-width: 0.8; stroke-linejoin: miter; stroke-linecap: square"/>
   </g>
   <g id="patch_5">
    <path d="M 90 384.48 
L 648 384.48 
" style="fill: none; stroke: #000000; stroke-width: 0.8; stroke-linejoin: miter; stroke-linecap: square"/>
   </g>
   <g id="patch_6">
    <path d="M 90 51.84 
L 648 51.84 
" style="fill: none; stroke: #000000; stroke-width: 0.8; stroke-linejoin: miter; stroke-linecap: square"/>
   </g>
   <g id="text_16">
    <!-- K vs. M -->
    <g transform="translate(347.490937 45.84) scale(0.12 -0.12)">
     <defs>
      <path id="DejaVuSans-20" transform="scale(0.015625)"/>
      <path id="DejaVuSans-76" d="M 191 3500 
L 800 3500 
L 1894 563 
L 2988 3500 
L 3597 3500 
L 2284 0 
L 1503 0 
L 191 3500 
z
" transform="scale(0.015625)"/>
      <path id="DejaVuSans-73" d="M 2834 3397 
L 2834 2853 
Q 2591 2978 2328 3040 
Q 2066 3103 1784 3103 
Q 1356 3103 1142 2972 
Q 928 2841 928 2578 
Q 928 2378 1081 2264 
Q 1234 2150 1697 2047 
L 1894 2003 
Q 2506 1872 2764 1633 
Q 3022 1394 3022 966 
Q 3022 478 2636 193 
Q 2250 -91 1575 -91 
Q 1294 -91 989 -36 
Q 684 19 347 128 
L 347 722 
Q 666 556 975 473 
Q 1284 391 1588 391 
Q 1994 391 2212 530 
Q 2431 669 2431 922 
Q 2431 1156 2273 1281 
Q 2116 1406 1581 1522 
L 1381 1569 
Q 847 1681 609 1914 
Q 372 2147 372 2553 
Q 372 3047 722 3315 
Q 1072 3584 1716 3584 
Q 2034 3584 2315 3537 
Q 2597 3491 2834 3397 
z
" transform="scale(0.015625)"/>
      <path id="DejaVuSans-2e" d="M 684 794 
L 1344 794 
L 1344 0 
L 684 0 
L 684 794 
z
" transform="scale(0.015625)"/>
     </defs>
     <use xlink:href="#DejaVuSans-4b"/>
     <use xlink:href="#DejaVuSans-20" x="65.576172"/>
     <use xlink:href="#DejaVuSans-76" x="97.363281"/>
     <use xlink:href="#DejaVuSans-73" x="156.542969"/>
     <use xlink:href="#DejaVuSans-2e" x="208.642578"/>
     <use xlink:href="#DejaVuSans-20" x="240.429688"/>
     <use xlink:href="#DejaVuSans-4d" x="272.216797"/>
    </g>
   </g>
   <g id="legend_1">
    <g id="patch_7">
     <path d="M 94.9 129.362812 
L 148.789062 129.362812 
Q 150.189063 129.362812 150.189063 127.962812 
L 150.189063 56.74 
Q 150.189063 55.34 148.789062 55.34 
L 94.9 55.34 
Q 93.5 55.34 93.5 56.74 
L 93.5 127.962812 
Q 93.5 129.362812 94.9 129.362812 
z
" style="fill: #ffffff; opacity: 0.8; stroke: #cccccc; stroke-linejoin: miter"/>
    </g>
    <g id="line2d_34">
     <path d="M 96.3 61.008906 
L 103.3 61.008906 
L 110.3 61.008906 
" style="fill: none; stroke: #000000; stroke-width: 3; stroke-linecap: square"/>
     <g>
      <use xlink:href="#m546b5a6835" x="103.3" y="61.008906" style="stroke: #000000"/>
     </g>
    </g>
    <g id="text_17">
     <!-- optimum -->
     <g transform="translate(115.9 63.458906) scale(0.07 -0.07)">
      <defs>
       <path id="DejaVuSans-6f" d="M 1959 3097 
Q 1497 3097 1228 2736 
Q 959 2375 959 1747 
Q 959 1119 1226 758 
Q 1494 397 1959 397 
Q 2419 397 2687 759 
Q 2956 1122 2956 1747 
Q 2956 2369 2687 2733 
Q 2419 3097 1959 3097 
z
M 1959 3584 
Q 2709 3584 3137 3096 
Q 3566 2609 3566 1747 
Q 3566 888 3137 398 
Q 2709 -91 1959 -91 
Q 1206 -91 779 398 
Q 353 888 353 1747 
Q 353 2609 779 3096 
Q 1206 3584 1959 3584 
z
" transform="scale(0.015625)"/>
       <path id="DejaVuSans-70" d="M 1159 525 
L 1159 -1331 
L 581 -1331 
L 581 3500 
L 1159 3500 
L 1159 2969 
Q 1341 3281 1617 3432 
Q 1894 3584 2278 3584 
Q 2916 3584 3314 3078 
Q 3713 2572 3713 1747 
Q 3713 922 3314 415 
Q 2916 -91 2278 -91 
Q 1894 -91 1617 61 
Q 1341 213 1159 525 
z
M 3116 1747 
Q 3116 2381 2855 2742 
Q 2594 3103 2138 3103 
Q 1681 3103 1420 2742 
Q 1159 2381 1159 1747 
Q 1159 1113 1420 752 
Q 1681 391 2138 391 
Q 2594 391 2855 752 
Q 3116 1113 3116 1747 
z
" transform="scale(0.015625)"/>
       <path id="DejaVuSans-74" d="M 1172 4494 
L 1172 3500 
L 2356 3500 
L 2356 3053 
L 1172 3053 
L 1172 1153 
Q 1172 725 1289 603 
Q 1406 481 1766 481 
L 2356 481 
L 2356 0 
L 1766 0 
Q 1100 0 847 248 
Q 594 497 594 1153 
L 594 3053 
L 172 3053 
L 172 3500 
L 594 3500 
L 594 4494 
L 1172 4494 
z
" transform="scale(0.015625)"/>
       <path id="DejaVuSans-69" d="M 603 3500 
L 1178 3500 
L 1178 0 
L 603 0 
L 603 3500 
z
M 603 4863 
L 1178 4863 
L 1178 4134 
L 603 4134 
L 603 4863 
z
" transform="scale(0.015625)"/>
       <path id="DejaVuSans-6d" d="M 3328 2828 
Q 3544 3216 3844 3400 
Q 4144 3584 4550 3584 
Q 5097 3584 5394 3201 
Q 5691 2819 5691 2113 
L 5691 0 
L 5113 0 
L 5113 2094 
Q 5113 2597 4934 2840 
Q 4756 3084 4391 3084 
Q 3944 3084 3684 2787 
Q 3425 2491 3425 1978 
L 3425 0 
L 2847 0 
L 2847 2094 
Q 2847 2600 2669 2842 
Q 2491 3084 2119 3084 
Q 1678 3084 1418 2786 
Q 1159 2488 1159 1978 
L 1159 0 
L 581 0 
L 581 3500 
L 1159 3500 
L 1159 2956 
Q 1356 3278 1631 3431 
Q 1906 3584 2284 3584 
Q 2666 3584 2933 3390 
Q 3200 3197 3328 2828 
z
" transform="scale(0.015625)"/>
       <path id="DejaVuSans-75" d="M 544 1381 
L 544 3500 
L 1119 3500 
L 1119 1403 
Q 1119 906 1312 657 
Q 1506 409 1894 409 
Q 2359 409 2629 706 
Q 2900 1003 2900 1516 
L 2900 3500 
L 3475 3500 
L 3475 0 
L 2900 0 
L 2900 538 
Q 2691 219 2414 64 
Q 2138 -91 1772 -91 
Q 1169 -91 856 284 
Q 544 659 544 1381 
z
M 1991 3584 
L 1991 3584 
z
" transform="scale(0.015625)"/>
      </defs>
      <use xlink:href="#DejaVuSans-6f"/>
      <use xlink:href="#DejaVuSans-70" x="61.181641"/>
      <use xlink:href="#DejaVuSans-74" x="124.658203"/>
      <use xlink:href="#DejaVuSans-69" x="163.867188"/>
      <use xlink:href="#DejaVuSans-6d" x="191.650391"/>
      <use xlink:href="#DejaVuSans-75" x="289.0625"/>
      <use xlink:href="#DejaVuSans-6d" x="352.441406"/>
     </g>
    </g>
    <g id="line2d_35">
     <path d="M 96.3 71.283594 
L 103.3 71.283594 
L 110.3 71.283594 
" style="fill: none; stroke: #8000ff; stroke-width: 1.5; stroke-linecap: square"/>
     <g>
      <use xlink:href="#mc9b06c172b" x="103.3" y="71.283594" style="fill: #8000ff; stroke: #8000ff"/>
     </g>
    </g>
    <g id="text_18">
     <!-- $\alpha$=0.0 -->
     <g transform="translate(115.9 73.733594) scale(0.07 -0.07)">
      <defs>
       <path id="DejaVuSans-Oblique-3b1" d="M 2619 1628 
L 2622 2350 
Q 2625 3088 2069 3091 
Q 1653 3094 1394 2747 
Q 1069 2319 959 1747 
Q 825 1059 994 731 
Q 1169 397 1547 397 
Q 1966 397 2319 1063 
L 2619 1628 
z
M 2166 3578 
Q 3141 3594 3128 2584 
Q 3128 2584 3616 3500 
L 4128 3500 
L 3119 1603 
L 3109 919 
Q 3109 766 3194 638 
Q 3291 488 3391 488 
L 3669 488 
L 3575 0 
L 3228 0 
Q 2934 0 2722 263 
Q 2622 394 2619 669 
Q 2416 334 2066 50 
Q 1900 -81 1453 -78 
Q 722 -72 456 397 
Q 184 884 353 1747 
Q 534 2675 1009 3097 
Q 1544 3569 2166 3578 
z
" transform="scale(0.015625)"/>
       <path id="DejaVuSans-3d" d="M 678 2906 
L 4684 2906 
L 4684 2381 
L 678 2381 
L 678 2906 
z
M 678 1631 
L 4684 1631 
L 4684 1100 
L 678 1100 
L 678 1631 
z
" transform="scale(0.015625)"/>
      </defs>
      <use xlink:href="#DejaVuSans-Oblique-3b1" transform="translate(0 0.78125)"/>
      <use xlink:href="#DejaVuSans-3d" transform="translate(65.917969 0.78125)"/>
      <use xlink:href="#DejaVuSans-30" transform="translate(149.707031 0.78125)"/>
      <use xlink:href="#DejaVuSans-2e" transform="translate(213.330078 0.78125)"/>
      <use xlink:href="#DejaVuSans-30" transform="translate(245.117188 0.78125)"/>
     </g>
    </g>
    <g id="line2d_36">
     <path d="M 96.3 81.558281 
L 103.3 81.558281 
L 110.3 81.558281 
" style="fill: none; stroke: #2c7ef7; stroke-width: 1.5; stroke-linecap: square"/>
     <g>
      <use xlink:href="#m9a5f95aaa2" x="103.3" y="81.558281" style="fill: #2c7ef7; stroke: #2c7ef7"/>
     </g>
    </g>
    <g id="text_19">
     <!-- $\alpha$=0.2 -->
     <g transform="translate(115.9 84.008281) scale(0.07 -0.07)">
      <use xlink:href="#DejaVuSans-Oblique-3b1" transform="translate(0 0.78125)"/>
      <use xlink:href="#DejaVuSans-3d" transform="translate(65.917969 0.78125)"/>
      <use xlink:href="#DejaVuSans-30" transform="translate(149.707031 0.78125)"/>
      <use xlink:href="#DejaVuSans-2e" transform="translate(213.330078 0.78125)"/>
      <use xlink:href="#DejaVuSans-32" transform="translate(239.617188 0.78125)"/>
     </g>
    </g>
    <g id="line2d_37">
     <path d="M 96.3 91.832969 
L 103.3 91.832969 
L 110.3 91.832969 
" style="fill: none; stroke: #2adddd; stroke-width: 1.5; stroke-linecap: square"/>
     <g>
      <use xlink:href="#m0e21ff1cac" x="103.3" y="91.832969" style="fill: #2adddd; stroke: #2adddd"/>
     </g>
    </g>
    <g id="text_20">
     <!-- $\alpha$=0.4 -->
     <g transform="translate(115.9 94.282969) scale(0.07 -0.07)">
      <use xlink:href="#DejaVuSans-Oblique-3b1" transform="translate(0 0.78125)"/>
      <use xlink:href="#DejaVuSans-3d" transform="translate(65.917969 0.78125)"/>
      <use xlink:href="#DejaVuSans-30" transform="translate(149.707031 0.78125)"/>
      <use xlink:href="#DejaVuSans-2e" transform="translate(213.330078 0.78125)"/>
      <use xlink:href="#DejaVuSans-34" transform="translate(245.117188 0.78125)"/>
     </g>
    </g>
    <g id="line2d_38">
     <path d="M 96.3 102.107656 
L 103.3 102.107656 
L 110.3 102.107656 
" style="fill: none; stroke: #80ffb4; stroke-width: 1.5; stroke-linecap: square"/>
     <g>
      <use xlink:href="#m949fe36403" x="103.3" y="102.107656" style="fill: #80ffb4; stroke: #80ffb4"/>
     </g>
    </g>
    <g id="text_21">
     <!-- $\alpha$=0.6 -->
     <g transform="translate(115.9 104.557656) scale(0.07 -0.07)">
      <use xlink:href="#DejaVuSans-Oblique-3b1" transform="translate(0 0.78125)"/>
      <use xlink:href="#DejaVuSans-3d" transform="translate(65.917969 0.78125)"/>
      <use xlink:href="#DejaVuSans-30" transform="translate(149.707031 0.78125)"/>
      <use xlink:href="#DejaVuSans-2e" transform="translate(213.330078 0.78125)"/>
      <use xlink:href="#DejaVuSans-36" transform="translate(245.117188 0.78125)"/>
     </g>
    </g>
    <g id="line2d_39">
     <path d="M 96.3 112.382344 
L 103.3 112.382344 
L 110.3 112.382344 
" style="fill: none; stroke: #d4dd80; stroke-width: 1.5; stroke-linecap: square"/>
     <g>
      <use xlink:href="#ma824348828" x="103.3" y="112.382344" style="fill: #d4dd80; stroke: #d4dd80"/>
     </g>
    </g>
    <g id="text_22">
     <!-- $\alpha$=0.8 -->
     <g transform="translate(115.9 114.832344) scale(0.07 -0.07)">
      <use xlink:href="#DejaVuSans-Oblique-3b1" transform="translate(0 0.78125)"/>
      <use xlink:href="#DejaVuSans-3d" transform="translate(65.917969 0.78125)"/>
      <use xlink:href="#DejaVuSans-30" transform="translate(149.707031 0.78125)"/>
      <use xlink:href="#DejaVuSans-2e" transform="translate(213.330078 0.78125)"/>
      <use xlink:href="#DejaVuSans-38" transform="translate(242.492188 0.78125)"/>
     </g>
    </g>
    <g id="line2d_40">
     <path d="M 96.3 122.657031 
L 103.3 122.657031 
L 110.3 122.657031 
" style="fill: none; stroke: #ff7e41; stroke-width: 1.5; stroke-linecap: square"/>
     <g>
      <use xlink:href="#mc30b741ddf" x="103.3" y="122.657031" style="fill: #ff7e41; stroke: #ff7e41"/>
     </g>
    </g>
    <g id="text_23">
     <!-- $\alpha$=1.0 -->
     <g transform="translate(115.9 125.107031) scale(0.07 -0.07)">
      <use xlink:href="#DejaVuSans-Oblique-3b1" transform="translate(0 0.78125)"/>
      <use xlink:href="#DejaVuSans-3d" transform="translate(65.917969 0.78125)"/>
      <use xlink:href="#DejaVuSans-31" transform="translate(149.707031 0.78125)"/>
      <use xlink:href="#DejaVuSans-2e" transform="translate(213.330078 0.78125)"/>
      <use xlink:href="#DejaVuSans-30" transform="translate(245.117188 0.78125)"/>
     </g>
    </g>
   </g>
  </g>
 </g>
 <defs>
  <clipPath id="pf536e567aa">
   <rect x="90" y="51.84" width="558" height="332.64"/>
  </clipPath>
 </defs>
</svg>
